<svg width="345" height="295" viewBox="0 0 345 295" fill="none" xmlns="http://www.w3.org/2000/svg">
<path d="M5.24 22.3C4.41333 22.3 3.59333 22.22 2.78 22.06C1.98 21.9133 1.32 21.7133 0.8 21.46V19.28C1.46667 19.6 2.16667 19.84 2.9 20C3.63333 20.16 4.35333 20.24 5.06 20.24C5.95333 20.24 6.63333 20.0733 7.1 19.74C7.56667 19.4067 7.8 18.9467 7.8 18.36C7.8 17.9467 7.69333 17.6067 7.48 17.34C7.26667 17.06 6.95333 16.82 6.54 16.62C6.12667 16.4067 5.49333 16.1333 4.64 15.8C3.33333 15.2667 2.38667 14.6733 1.8 14.02C1.21333 13.3667 0.92 12.5533 0.92 11.58C0.92 10.82 1.12667 10.1467 1.54 9.56C1.95333 8.97333 2.53333 8.52 3.28 8.2C4.02667 7.88 4.88667 7.72 5.86 7.72C6.66 7.72 7.36667 7.78667 7.98 7.92C8.60667 8.04 9.22 8.23333 9.82 8.5V10.62C8.66 10.06 7.48667 9.78 6.3 9.78C5.44667 9.78 4.78667 9.94 4.32 10.26C3.85333 10.5667 3.62 11.0067 3.62 11.58C3.62 11.9933 3.72667 12.3333 3.94 12.6C4.15333 12.8533 4.43333 13.0733 4.78 13.26C5.14 13.4333 5.78 13.7133 6.7 14.1C7.63333 14.4867 8.36667 14.8667 8.9 15.24C9.44667 15.6133 9.85333 16.0533 10.12 16.56C10.4 17.0533 10.54 17.66 10.54 18.38C10.54 19.62 10.0933 20.5867 9.2 21.28C8.30667 21.96 6.98667 22.3 5.24 22.3ZM15.7045 22.3C14.6512 22.3 13.8512 22.0067 13.3045 21.42C12.7579 20.8333 12.4845 20.0067 12.4845 18.94V14.32H11.0445V12.4H12.4845V9.52H15.0045V12.4H17.3045V14.32H15.0045V18.62C15.0045 19.2333 15.1179 19.6733 15.3445 19.94C15.5712 20.1933 15.9845 20.32 16.5845 20.32C16.9979 20.32 17.4045 20.2267 17.8045 20.04V21.96C17.2312 22.1867 16.5312 22.3 15.7045 22.3ZM22.8255 22.3C21.6788 22.3 20.7388 22 20.0055 21.4C19.2721 20.7867 18.9055 19.9667 18.9055 18.94C18.9055 17.8733 19.2521 17.04 19.9455 16.44C20.6388 15.84 21.6121 15.54 22.8655 15.54C24.0788 15.54 25.1255 15.7867 26.0055 16.28V16.02C26.0055 15.34 25.7921 14.8467 25.3655 14.54C24.9521 14.2333 24.2788 14.08 23.3455 14.08C22.7588 14.08 22.1788 14.14 21.6055 14.26C21.0321 14.3667 20.5255 14.52 20.0855 14.72V12.74C20.4855 12.5533 21.0188 12.4 21.6855 12.28C22.3655 12.16 23.0188 12.1 23.6455 12.1C25.3121 12.1 26.5455 12.46 27.3455 13.18C28.1455 13.8867 28.5455 14.8733 28.5455 16.14V22H26.1655V21.06C25.7521 21.46 25.2788 21.7667 24.7455 21.98C24.2255 22.1933 23.5855 22.3 22.8255 22.3ZM23.4455 20.46C24.0055 20.46 24.5121 20.3533 24.9655 20.14C25.4188 19.9133 25.7655 19.6067 26.0055 19.22V18.16C25.2721 17.64 24.4321 17.38 23.4855 17.38C22.1388 17.38 21.4655 17.9 21.4655 18.94C21.4655 19.4467 21.6321 19.8267 21.9655 20.08C22.3121 20.3333 22.8055 20.46 23.4455 20.46ZM34.2006 22.3C33.1473 22.3 32.3473 22.0067 31.8006 21.42C31.254 20.8333 30.9806 20.0067 30.9806 18.94V14.32H29.5406V12.4H30.9806V9.52H33.5006V12.4H35.8006V14.32H33.5006V18.62C33.5006 19.2333 33.614 19.6733 33.8406 19.94C34.0673 20.1933 34.4806 20.32 35.0806 20.32C35.494 20.32 35.9006 20.2267 36.3006 20.04V21.96C35.7273 22.1867 35.0273 22.3 34.2006 22.3ZM39.5145 10.72C39.1145 10.72 38.7745 10.5867 38.4945 10.32C38.2279 10.0533 38.0945 9.72 38.0945 9.32C38.0945 8.92 38.2279 8.58667 38.4945 8.32C38.7745 8.04 39.1145 7.9 39.5145 7.9C39.9145 7.9 40.2545 8.04 40.5345 8.32C40.8145 8.58667 40.9545 8.92 40.9545 9.32C40.9545 9.72 40.8145 10.0533 40.5345 10.32C40.2545 10.5867 39.9145 10.72 39.5145 10.72ZM38.2345 12.4H40.7945V22H38.2345V12.4ZM47.0884 22.3C46.3951 22.3 45.6551 22.22 44.8684 22.06C44.0818 21.9 43.4684 21.68 43.0284 21.4V19.26C43.5484 19.58 44.1684 19.84 44.8884 20.04C45.6084 20.2267 46.2884 20.32 46.9284 20.32C47.5684 20.32 48.0351 20.2667 48.3284 20.16C48.6218 20.04 48.7684 19.8267 48.7684 19.52C48.7684 19.28 48.6884 19.0867 48.5284 18.94C48.3818 18.78 48.1351 18.64 47.7884 18.52C47.4551 18.3867 46.9351 18.2267 46.2284 18.04C45.4284 17.8133 44.7951 17.58 44.3284 17.34C43.8751 17.1 43.5284 16.8 43.2884 16.44C43.0618 16.0667 42.9484 15.5867 42.9484 15C42.9484 14.04 43.3284 13.32 44.0884 12.84C44.8484 12.3467 45.8751 12.1 47.1684 12.1C47.8351 12.1 48.4951 12.1667 49.1484 12.3C49.8151 12.42 50.3351 12.5933 50.7084 12.82V14.88C50.3084 14.64 49.8218 14.4467 49.2484 14.3C48.6751 14.1533 48.0884 14.08 47.4884 14.08C46.8351 14.08 46.3418 14.1467 46.0084 14.28C45.6751 14.4 45.5084 14.64 45.5084 15C45.5084 15.24 45.5951 15.4333 45.7684 15.58C45.9551 15.7133 46.1951 15.8333 46.4884 15.94C46.7818 16.0333 47.3151 16.18 48.0884 16.38C48.9151 16.6067 49.5618 16.8533 50.0284 17.12C50.4951 17.3867 50.8284 17.7067 51.0284 18.08C51.2284 18.4533 51.3284 18.92 51.3284 19.48C51.3284 20.3333 50.9618 21.02 50.2284 21.54C49.5084 22.0467 48.4618 22.3 47.0884 22.3ZM56.8959 22.3C55.8426 22.3 55.0426 22.0067 54.4959 21.42C53.9493 20.8333 53.6759 20.0067 53.6759 18.94V14.32H52.2359V12.4H53.6759V9.52H56.1959V12.4H58.4959V14.32H56.1959V18.62C56.1959 19.2333 56.3093 19.6733 56.5359 19.94C56.7626 20.1933 57.1759 20.32 57.7759 20.32C58.1893 20.32 58.5959 20.2267 58.9959 20.04V21.96C58.4226 22.1867 57.7226 22.3 56.8959 22.3ZM62.2098 10.72C61.8098 10.72 61.4698 10.5867 61.1898 10.32C60.9232 10.0533 60.7898 9.72 60.7898 9.32C60.7898 8.92 60.9232 8.58667 61.1898 8.32C61.4698 8.04 61.8098 7.9 62.2098 7.9C62.6098 7.9 62.9498 8.04 63.2298 8.32C63.5098 8.58667 63.6498 8.92 63.6498 9.32C63.6498 9.72 63.5098 10.0533 63.2298 10.32C62.9498 10.5867 62.6098 10.72 62.2098 10.72ZM60.9298 12.4H63.4898V22H60.9298V12.4ZM71.2638 22.3C70.1438 22.3 69.1571 22.1 68.3038 21.7C67.4638 21.3 66.8104 20.72 66.3438 19.96C65.8771 19.2 65.6438 18.2867 65.6438 17.22C65.6438 16.1533 65.8771 15.24 66.3438 14.48C66.8238 13.7067 67.4838 13.12 68.3238 12.72C69.1771 12.3067 70.1704 12.1 71.3038 12.1C72.7971 12.1 73.9904 12.3933 74.8838 12.98V15C74.0171 14.3867 72.9104 14.08 71.5638 14.08C70.5371 14.08 69.7171 14.34 69.1038 14.86C68.5038 15.3667 68.2038 16.1533 68.2038 17.22C68.2038 18.2733 68.5038 19.0533 69.1038 19.56C69.7171 20.0667 70.5238 20.32 71.5238 20.32C72.8704 20.32 74.0304 20 75.0038 19.36V21.36C74.5238 21.68 73.9771 21.9133 73.3638 22.06C72.7638 22.22 72.0638 22.3 71.2638 22.3ZM80.6431 22.3C79.9498 22.3 79.2098 22.22 78.4231 22.06C77.6365 21.9 77.0231 21.68 76.5831 21.4V19.26C77.1031 19.58 77.7231 19.84 78.4431 20.04C79.1631 20.2267 79.8431 20.32 80.4831 20.32C81.1231 20.32 81.5898 20.2667 81.8831 20.16C82.1765 20.04 82.3231 19.8267 82.3231 19.52C82.3231 19.28 82.2431 19.0867 82.0831 18.94C81.9365 18.78 81.6898 18.64 81.3431 18.52C81.0098 18.3867 80.4898 18.2267 79.7831 18.04C78.9831 17.8133 78.3498 17.58 77.8831 17.34C77.4298 17.1 77.0831 16.8 76.8431 16.44C76.6165 16.0667 76.5031 15.5867 76.5031 15C76.5031 14.04 76.8831 13.32 77.6431 12.84C78.4031 12.3467 79.4298 12.1 80.7231 12.1C81.3898 12.1 82.0498 12.1667 82.7031 12.3C83.3698 12.42 83.8898 12.5933 84.2631 12.82V14.88C83.8631 14.64 83.3765 14.4467 82.8031 14.3C82.2298 14.1533 81.6431 14.08 81.0431 14.08C80.3898 14.08 79.8965 14.1467 79.5631 14.28C79.2298 14.4 79.0631 14.64 79.0631 15C79.0631 15.24 79.1498 15.4333 79.3231 15.58C79.5098 15.7133 79.7498 15.8333 80.0431 15.94C80.3365 16.0333 80.8698 16.18 81.6431 16.38C82.4698 16.6067 83.1165 16.8533 83.5831 17.12C84.0498 17.3867 84.3831 17.7067 84.5831 18.08C84.7831 18.4533 84.8831 18.92 84.8831 19.48C84.8831 20.3333 84.5165 21.02 83.7831 21.54C83.0631 22.0467 82.0165 22.3 80.6431 22.3Z" fill="#2B2B2B"/>
<rect x="0.5" y="43.5" width="337" height="251" rx="10.5" fill="white" stroke="#DCDCDC"/>
<path d="M313.492 60.6667H306.508C303.475 60.6667 301.667 62.475 301.667 65.5083V72.4833C301.667 75.525 303.475 77.3333 306.508 77.3333H313.483C316.517 77.3333 318.325 75.525 318.325 72.4917V65.5083C318.333 62.475 316.525 60.6667 313.492 60.6667ZM312.325 69.4417L309.383 72.3833C309.258 72.5083 309.1 72.5667 308.942 72.5667C308.783 72.5667 308.625 72.5083 308.5 72.3833C308.258 72.1417 308.258 71.7417 308.5 71.5L311 69L308.5 66.5C308.258 66.2583 308.258 65.8583 308.5 65.6167C308.742 65.375 309.142 65.375 309.383 65.6167L312.325 68.5583C312.575 68.8 312.575 69.2 312.325 69.4417Z" fill="#BBBBBB"/>
<path d="M309 236C309 213.208 303.395 190.765 292.68 170.649L219.209 209.786C223.508 217.855 225.756 226.858 225.756 236H309Z" fill="#1C644C"/>
<path d="M290.415 165.859C278.604 146.034 262.043 129.46 242.226 117.635L199.57 189.12C207.519 193.864 214.162 200.511 218.9 208.464L290.415 165.859Z" fill="#379777"/>
<path d="M237.207 114.327C220.07 104.861 201.126 99.1225 181.617 97.4863L174.66 180.439C182.485 181.095 190.084 183.398 196.958 187.195L237.207 114.327Z" fill="#379777"/>
<path d="M171.97 97.014C152.84 96.7428 133.859 100.424 116.217 107.827L148.426 184.587C155.503 181.618 163.117 180.141 170.79 180.25L171.97 97.014Z" fill="#379777"/>
<path d="M111.467 110.016C90.4675 119.365 72.1141 133.776 58.0506 151.958L123.897 202.888C129.538 195.594 136.9 189.814 145.323 186.064L111.467 110.016Z" fill="#E4E4E4"/>
<path d="M55.2448 157.564C39.5554 180.518 31.1105 207.65 31.0011 235.453L114.245 235.781C114.288 224.628 117.676 213.745 123.969 204.538L55.2448 157.564Z" fill="#E8E8E8"/>
<line x1="194.072" y1="219.228" x2="299.072" y2="164.228" stroke="white" stroke-width="4"/>
<line x1="191.303" y1="198.705" x2="242.303" y2="116.942" stroke="white" stroke-width="4"/>
<line x1="169.006" y1="194.666" x2="177.537" y2="88.8393" stroke="white" stroke-width="4"/>
<line x1="149.179" y1="190.826" x2="108.377" y2="100.841" stroke="white" stroke-width="4"/>
<line x1="125.714" y1="208.532" x2="47.9681" y2="143.27" stroke="white" stroke-width="4"/>
<path d="M152.665 215.06H141.202V212.403H155.878V214.721L147.196 234H144.106L152.665 215.06ZM166.257 234.463C163.826 234.463 161.9 233.918 160.479 232.826C159.058 231.714 158.347 230.138 158.347 228.099C158.347 226.719 158.708 225.565 159.429 224.638C160.15 223.691 161.107 223.052 162.302 222.723C161.313 222.311 160.531 221.683 159.954 220.838C159.377 219.973 159.089 218.974 159.089 217.841C159.089 216.029 159.738 214.597 161.035 213.546C162.333 212.475 164.073 211.94 166.257 211.94C168.42 211.94 170.15 212.475 171.447 213.546C172.745 214.597 173.394 216.029 173.394 217.841C173.394 218.974 173.105 219.973 172.529 220.838C171.952 221.683 171.169 222.311 170.181 222.723C171.375 223.052 172.333 223.691 173.054 224.638C173.796 225.565 174.166 226.719 174.166 228.099C174.166 230.138 173.456 231.714 172.034 232.826C170.613 233.918 168.687 234.463 166.257 234.463ZM166.257 221.765C167.472 221.765 168.461 221.435 169.223 220.776C169.985 220.097 170.366 219.211 170.366 218.119C170.366 217.007 169.985 216.101 169.223 215.4C168.481 214.7 167.493 214.35 166.257 214.35C165.021 214.35 164.022 214.7 163.26 215.4C162.518 216.101 162.148 217.007 162.148 218.119C162.148 219.211 162.529 220.097 163.291 220.776C164.053 221.435 165.041 221.765 166.257 221.765ZM166.257 232.177C167.74 232.177 168.904 231.796 169.748 231.034C170.593 230.272 171.015 229.221 171.015 227.882C171.015 226.605 170.572 225.596 169.686 224.855C168.821 224.113 167.678 223.742 166.257 223.742C164.836 223.742 163.682 224.113 162.796 224.855C161.911 225.596 161.468 226.605 161.468 227.882C161.468 229.221 161.89 230.272 162.735 231.034C163.6 231.796 164.774 232.177 166.257 232.177ZM182.68 223.279C181.65 223.279 180.703 223.032 179.838 222.537C178.973 222.022 178.283 221.332 177.768 220.467C177.273 219.602 177.026 218.655 177.026 217.625C177.026 216.595 177.273 215.647 177.768 214.782C178.283 213.897 178.973 213.207 179.838 212.712C180.703 212.197 181.65 211.94 182.68 211.94C183.71 211.94 184.658 212.197 185.523 212.712C186.408 213.207 187.098 213.897 187.593 214.782C188.108 215.647 188.365 216.595 188.365 217.625C188.365 218.655 188.108 219.602 187.593 220.467C187.098 221.332 186.408 222.022 185.523 222.537C184.658 223.032 183.71 223.279 182.68 223.279ZM193.71 212.403H196.769L184.812 234H181.753L193.71 212.403ZM182.68 220.993C183.628 220.993 184.41 220.673 185.028 220.035C185.667 219.396 185.986 218.614 185.986 217.687C185.986 216.739 185.667 215.946 185.028 215.308C184.41 214.669 183.628 214.35 182.68 214.35C181.733 214.35 180.94 214.669 180.301 215.308C179.683 215.946 179.374 216.739 179.374 217.687C179.374 218.614 179.683 219.396 180.301 220.035C180.94 220.673 181.733 220.993 182.68 220.993ZM195.811 234.463C194.781 234.463 193.834 234.216 192.969 233.722C192.104 233.207 191.414 232.517 190.899 231.652C190.404 230.787 190.157 229.839 190.157 228.809C190.157 227.779 190.404 226.832 190.899 225.967C191.414 225.081 192.104 224.391 192.969 223.897C193.834 223.382 194.781 223.124 195.811 223.124C196.841 223.124 197.789 223.382 198.654 223.897C199.539 224.391 200.229 225.081 200.724 225.967C201.239 226.832 201.496 227.779 201.496 228.809C201.496 229.839 201.239 230.787 200.724 231.652C200.229 232.517 199.539 233.207 198.654 233.722C197.789 234.216 196.841 234.463 195.811 234.463ZM195.78 232.177C196.728 232.177 197.521 231.858 198.159 231.219C198.798 230.581 199.117 229.798 199.117 228.871C199.117 227.924 198.798 227.131 198.159 226.492C197.521 225.854 196.728 225.534 195.78 225.534C194.853 225.534 194.071 225.854 193.432 226.492C192.794 227.131 192.474 227.924 192.474 228.871C192.474 229.798 192.794 230.581 193.432 231.219C194.071 231.858 194.853 232.177 195.78 232.177Z" fill="black"/>
<path d="M16.72 62.816H18.416L20.912 71.312L23.376 62.816H24.656L27.104 71.312L29.6 62.816H31.296L28.032 74H26.48L24 65.552L21.536 74H19.984L16.72 62.816ZM34.6045 74.24C33.6765 74.24 32.9298 74.0053 32.3645 73.536C31.8098 73.056 31.5325 72.4107 31.5325 71.6C31.5325 70.7467 31.7992 70.0907 32.3325 69.632C32.8765 69.1627 33.6445 68.928 34.6365 68.928C35.6925 68.928 36.5885 69.1413 37.3245 69.568V69.168C37.3245 68.56 37.1378 68.112 36.7645 67.824C36.4018 67.5253 35.8258 67.376 35.0365 67.376C34.5672 67.376 34.1085 67.424 33.6605 67.52C33.2232 67.6053 32.8285 67.728 32.4765 67.888V66.576C32.7965 66.4267 33.2125 66.3093 33.7245 66.224C34.2365 66.128 34.7325 66.08 35.2125 66.08C36.4818 66.08 37.4205 66.3627 38.0285 66.928C38.6472 67.4827 38.9565 68.256 38.9565 69.248V74H37.4365V73.136C37.1058 73.4987 36.7112 73.776 36.2525 73.968C35.8045 74.1493 35.2552 74.24 34.6045 74.24ZM35.0045 73.008C35.5165 73.008 35.9805 72.9067 36.3965 72.704C36.8125 72.5013 37.1218 72.2187 37.3245 71.856V70.816C36.6312 70.368 35.8578 70.144 35.0045 70.144C34.3858 70.144 33.9218 70.2667 33.6125 70.512C33.3138 70.7467 33.1645 71.1093 33.1645 71.6C33.1645 72.5387 33.7778 73.008 35.0045 73.008ZM43.5156 74.24C42.737 74.24 42.1343 74.016 41.7076 73.568C41.2916 73.12 41.0836 72.4853 41.0836 71.664V67.568H39.9156V66.32H41.0836V64.016H42.7156V66.32H44.6036V67.568H42.7156V71.552C42.7156 72.064 42.8116 72.4267 43.0036 72.64C43.2063 72.8533 43.569 72.96 44.0916 72.96C44.401 72.96 44.7103 72.8907 45.0196 72.752V74.032C44.6143 74.1707 44.113 74.24 43.5156 74.24ZM50.764 74.24C49.3453 74.24 48.2307 73.888 47.42 73.184C46.62 72.4693 46.22 71.4667 46.22 70.176C46.22 68.9173 46.5773 67.92 47.292 67.184C48.0173 66.448 49.0467 66.08 50.38 66.08C51.2653 66.08 52.0173 66.2507 52.636 66.592C53.2547 66.9227 53.7187 67.3867 54.028 67.984C54.348 68.5707 54.508 69.2427 54.508 70V70.8H47.756C47.8093 71.5253 48.1133 72.0693 48.668 72.432C49.2333 72.784 49.996 72.96 50.956 72.96C51.4467 72.96 51.9427 72.9173 52.444 72.832C52.9453 72.736 53.388 72.6133 53.772 72.464V73.76C53.4307 73.8987 52.9773 74.0107 52.412 74.096C51.8573 74.192 51.308 74.24 50.764 74.24ZM52.988 69.664C52.9667 68.9387 52.7267 68.3787 52.268 67.984C51.82 67.5787 51.18 67.376 50.348 67.376C49.5373 67.376 48.908 67.584 48.46 68C48.012 68.416 47.7773 68.9707 47.756 69.664H52.988ZM56.2744 66.32H57.8424V67.696C58.1624 67.2267 58.6104 66.88 59.1864 66.656C59.773 66.432 60.4504 66.32 61.2184 66.32V67.584C60.397 67.584 59.693 67.7173 59.1064 67.984C58.5197 68.2507 58.1144 68.672 57.8904 69.248V74H56.2744V66.32ZM68.5869 62.176H70.2029V74H68.5869V62.176ZM76.514 74.24C75.0953 74.24 73.9807 73.888 73.17 73.184C72.37 72.4693 71.97 71.4667 71.97 70.176C71.97 68.9173 72.3273 67.92 73.042 67.184C73.7673 66.448 74.7967 66.08 76.13 66.08C77.0153 66.08 77.7673 66.2507 78.386 66.592C79.0047 66.9227 79.4687 67.3867 79.778 67.984C80.098 68.5707 80.258 69.2427 80.258 70V70.8H73.506C73.5593 71.5253 73.8633 72.0693 74.418 72.432C74.9833 72.784 75.746 72.96 76.706 72.96C77.1967 72.96 77.6927 72.9173 78.194 72.832C78.6953 72.736 79.138 72.6133 79.522 72.464V73.76C79.1807 73.8987 78.7273 74.0107 78.162 74.096C77.6073 74.192 77.058 74.24 76.514 74.24ZM78.738 69.664C78.7167 68.9387 78.4767 68.3787 78.018 67.984C77.57 67.5787 76.93 67.376 76.098 67.376C75.2873 67.376 74.658 67.584 74.21 68C73.762 68.416 73.5273 68.9707 73.506 69.664H78.738ZM81.0638 66.32H82.7758L85.0318 71.84L87.2878 66.32H88.9998L85.7358 74H84.3278L81.0638 66.32ZM94.3421 74.24C92.9235 74.24 91.8088 73.888 90.9981 73.184C90.1981 72.4693 89.7981 71.4667 89.7981 70.176C89.7981 68.9173 90.1555 67.92 90.8701 67.184C91.5955 66.448 92.6248 66.08 93.9581 66.08C94.8435 66.08 95.5955 66.2507 96.2141 66.592C96.8328 66.9227 97.2968 67.3867 97.6061 67.984C97.9261 68.5707 98.0861 69.2427 98.0861 70V70.8H91.3341C91.3875 71.5253 91.6915 72.0693 92.2461 72.432C92.8115 72.784 93.5741 72.96 94.5341 72.96C95.0248 72.96 95.5208 72.9173 96.0221 72.832C96.5235 72.736 96.9661 72.6133 97.3501 72.464V73.76C97.0088 73.8987 96.5555 74.0107 95.9901 74.096C95.4355 74.192 94.8861 74.24 94.3421 74.24ZM96.5661 69.664C96.5448 68.9387 96.3048 68.3787 95.8461 67.984C95.3981 67.5787 94.7581 67.376 93.9261 67.376C93.1155 67.376 92.4861 67.584 92.0381 68C91.5901 68.416 91.3555 68.9707 91.3341 69.664H96.5661ZM99.8525 62.176H101.469V74H99.8525V62.176Z" fill="#379777"/>
</svg>
