<svg width="338" height="252" viewBox="0 0 338 252" fill="none" xmlns="http://www.w3.org/2000/svg">
<g clip-path="url(#clip0_56_494)">
<rect x="0.5" y="0.5" width="337" height="238" rx="10.5" fill="white" stroke="#DCDCDC"/>
<path d="M317.492 17.6667H310.508C307.475 17.6667 305.667 19.475 305.667 22.5084V29.4834C305.667 32.525 307.475 34.3334 310.508 34.3334H317.483C320.517 34.3334 322.325 32.525 322.325 29.4917V22.5084C322.333 19.475 320.525 17.6667 317.492 17.6667ZM316.325 26.4417L313.383 29.3834C313.258 29.5084 313.1 29.5667 312.942 29.5667C312.783 29.5667 312.625 29.5084 312.5 29.3834C312.258 29.1417 312.258 28.7417 312.5 28.5L315 26L312.5 23.5C312.258 23.2584 312.258 22.8584 312.5 22.6167C312.742 22.375 313.142 22.375 313.383 22.6167L316.325 25.5584C316.575 25.8 316.575 26.2 316.325 26.4417Z" fill="#BBBBBB"/>
<path d="M16.0065 64.1505C15.4716 64.1505 14.9968 64.0502 14.5822 63.8495C14.1677 63.6489 13.8434 63.3581 13.6093 62.9769C13.382 62.5891 13.2683 62.1311 13.2683 61.6028C13.2683 61.0746 13.382 60.6199 13.6093 60.2387C13.8434 59.8509 14.1677 59.5534 14.5822 59.3461C15.0035 59.1388 15.4849 59.0351 16.0266 59.0351C16.7621 59.0351 17.3505 59.1789 17.7918 59.4664V60.2989C17.3572 59.998 16.8022 59.8476 16.1269 59.8476C15.5785 59.8476 15.1339 59.998 14.7929 60.2989C14.4585 60.5931 14.2914 61.0278 14.2914 61.6028C14.2914 62.1779 14.4585 62.6125 14.7929 62.9067C15.1272 63.2009 15.5652 63.348 16.1068 63.348C16.7821 63.348 17.3639 63.1876 17.852 62.8666V63.6891C17.618 63.8495 17.3505 63.9666 17.0496 64.0401C16.7554 64.1137 16.4077 64.1505 16.0065 64.1505ZM18.9541 59.1856H19.9169V59.8777C20.1443 59.5968 20.4017 59.3862 20.6892 59.2458C20.9768 59.1054 21.2743 59.0351 21.5819 59.0351C21.9697 59.0351 22.2773 59.102 22.5047 59.2357C22.732 59.3628 22.8992 59.5601 23.0062 59.8275C23.2202 59.5667 23.4809 59.3695 23.7885 59.2357C24.1028 59.102 24.4171 59.0351 24.7313 59.0351C25.3198 59.0351 25.7444 59.1856 26.0051 59.4865C26.2659 59.7807 26.3963 60.2187 26.3963 60.8004V64H25.4134V60.9308C25.4134 60.5363 25.3398 60.2588 25.1927 60.0983C25.0456 59.9312 24.7949 59.8476 24.4405 59.8476C23.9323 59.8476 23.5177 60.0682 23.1967 60.5096C23.2101 60.6099 23.2168 60.7737 23.2168 61.001V64H22.2339V60.9308C22.2339 60.5363 22.167 60.2588 22.0333 60.0983C21.8995 59.9312 21.6588 59.8476 21.3111 59.8476C20.8029 59.8476 20.3482 60.1351 19.947 60.7102V64H18.9541V59.1856Z" fill="#1E1E1E"/>
<g clip-path="url(#clip1_56_494)">
<path d="M43.6807 199H444.438" stroke="black" stroke-width="0.669309"/>
<path d="M43.6807 203.538V199" stroke="#A7A7A7" stroke-width="0.669309"/>
<path d="M44.0038 218.062C43.5741 218.062 43.2081 217.945 42.9057 217.711C42.6034 217.475 42.3724 217.134 42.2127 216.687C42.0529 216.238 41.9731 215.697 41.9731 215.061C41.9731 214.43 42.0529 213.891 42.2127 213.444C42.3743 212.996 42.6063 212.653 42.9086 212.418C43.2128 212.18 43.5779 212.061 44.0038 212.061C44.4298 212.061 44.7939 212.18 45.0962 212.418C45.4004 212.653 45.6324 212.996 45.7921 213.444C45.9538 213.891 46.0346 214.43 46.0346 215.061C46.0346 215.697 45.9547 216.238 45.795 216.687C45.6353 217.134 45.4042 217.475 45.1019 217.711C44.7996 217.945 44.4336 218.062 44.0038 218.062ZM44.0038 217.435C44.4298 217.435 44.7606 217.229 44.9964 216.818C45.2322 216.408 45.3501 215.822 45.3501 215.061C45.3501 214.556 45.2959 214.125 45.1875 213.769C45.081 213.414 44.927 213.143 44.7254 212.957C44.5258 212.77 44.2852 212.677 44.0038 212.677C43.5817 212.677 43.2518 212.885 43.0141 213.302C42.7764 213.716 42.6576 214.303 42.6576 215.061C42.6576 215.567 42.7108 215.997 42.8173 216.351C42.9238 216.704 43.0769 216.973 43.2765 217.158C43.4781 217.342 43.7205 217.435 44.0038 217.435Z" fill="#A7A7A7"/>
<path d="M123.832 203.538V199" stroke="#A7A7A7" stroke-width="0.669309"/>
<path d="M124.616 212.141V217.982H123.908V212.882H123.874L122.448 213.829V213.111L123.908 212.141H124.616Z" fill="#A7A7A7"/>
<path d="M203.984 203.538V199" stroke="#A7A7A7" stroke-width="0.669309"/>
<path d="M201.98 217.982V217.469L203.908 215.358C204.134 215.111 204.32 214.896 204.467 214.714C204.613 214.529 204.721 214.356 204.792 214.194C204.864 214.031 204.9 213.86 204.9 213.681C204.9 213.476 204.851 213.298 204.752 213.148C204.655 212.997 204.522 212.881 204.353 212.8C204.183 212.718 203.993 212.677 203.782 212.677C203.558 212.677 203.362 212.724 203.195 212.817C203.029 212.908 202.901 213.036 202.81 213.202C202.72 213.367 202.676 213.561 202.676 213.784H202.002C202.002 213.441 202.081 213.141 202.239 212.882C202.397 212.624 202.612 212.422 202.884 212.278C203.158 212.133 203.465 212.061 203.805 212.061C204.147 212.061 204.451 212.133 204.715 212.278C204.979 212.422 205.186 212.617 205.337 212.862C205.487 213.108 205.562 213.381 205.562 213.681C205.562 213.896 205.523 214.106 205.445 214.311C205.369 214.515 205.236 214.742 205.046 214.993C204.857 215.242 204.596 215.546 204.261 215.906L202.949 217.309V217.355H205.665V217.982H201.98Z" fill="#A7A7A7"/>
<path d="M284.135 203.538V199" stroke="#A7A7A7" stroke-width="0.669309"/>
<path d="M284.48 218.062C284.103 218.062 283.768 217.997 283.473 217.868C283.18 217.739 282.947 217.559 282.774 217.329C282.603 217.097 282.51 216.828 282.495 216.522H283.214C283.229 216.71 283.293 216.873 283.408 217.01C283.522 217.145 283.671 217.249 283.855 217.323C284.04 217.397 284.244 217.435 284.469 217.435C284.72 217.435 284.942 217.391 285.136 217.303C285.33 217.216 285.482 217.094 285.592 216.938C285.703 216.782 285.758 216.602 285.758 216.396C285.758 216.181 285.704 215.992 285.598 215.829C285.492 215.663 285.336 215.534 285.13 215.441C284.925 215.348 284.674 215.301 284.377 215.301H283.909V214.674H284.377C284.609 214.674 284.813 214.632 284.988 214.548C285.164 214.464 285.302 214.347 285.401 214.194C285.502 214.042 285.552 213.864 285.552 213.658C285.552 213.46 285.509 213.288 285.421 213.142C285.334 212.996 285.21 212.881 285.05 212.8C284.893 212.718 284.706 212.677 284.491 212.677C284.29 212.677 284.1 212.714 283.921 212.788C283.744 212.861 283.6 212.966 283.487 213.105C283.375 213.242 283.314 213.407 283.305 213.601H282.62C282.632 213.295 282.724 213.027 282.897 212.797C283.07 212.565 283.296 212.384 283.576 212.255C283.857 212.126 284.166 212.061 284.503 212.061C284.864 212.061 285.174 212.134 285.433 212.281C285.691 212.425 285.89 212.616 286.029 212.854C286.167 213.092 286.237 213.348 286.237 213.624C286.237 213.953 286.15 214.233 285.977 214.465C285.806 214.697 285.573 214.858 285.279 214.947V214.993C285.647 215.054 285.935 215.211 286.143 215.464C286.35 215.715 286.454 216.026 286.454 216.396C286.454 216.714 286.367 216.999 286.194 217.252C286.023 217.503 285.789 217.701 285.492 217.845C285.196 217.99 284.858 218.062 284.48 218.062Z" fill="#A7A7A7"/>
<path d="M28.9879 198.798H33.0089" stroke="#A7A7A7" stroke-width="0.669309"/>
<path d="M23.7734 201.024C23.3437 201.024 22.9776 200.907 22.6753 200.673C22.373 200.437 22.1419 200.096 21.9822 199.649C21.8225 199.2 21.7426 198.658 21.7426 198.023C21.7426 197.392 21.8225 196.853 21.9822 196.406C22.1438 195.957 22.3758 195.615 22.6782 195.379C22.9824 195.142 23.3475 195.023 23.7734 195.023C24.1993 195.023 24.5634 195.142 24.8658 195.379C25.17 195.615 25.402 195.957 25.5617 196.406C25.7233 196.853 25.8041 197.392 25.8041 198.023C25.8041 198.658 25.7243 199.2 25.5645 199.649C25.4048 200.096 25.1738 200.437 24.8715 200.673C24.5691 200.907 24.2031 201.024 23.7734 201.024ZM23.7734 200.396C24.1993 200.396 24.5302 200.191 24.7659 199.78C25.0017 199.37 25.1196 198.784 25.1196 198.023C25.1196 197.518 25.0654 197.087 24.957 196.731C24.8506 196.376 24.6965 196.105 24.495 195.918C24.2953 195.732 24.0548 195.639 23.7734 195.639C23.3513 195.639 23.0214 195.847 22.7837 196.263C22.546 196.678 22.4272 197.265 22.4272 198.023C22.4272 198.529 22.4804 198.959 22.5869 199.312C22.6934 199.666 22.8464 199.935 23.0461 200.12C23.2476 200.304 23.4901 200.396 23.7734 200.396Z" fill="#A7A7A7"/>
<path d="M28.9879 168.544H33.0089" stroke="#A7A7A7" stroke-width="0.669309"/>
<path d="M20.9841 170.69V170.176L22.9122 168.066C23.1385 167.819 23.3248 167.604 23.4712 167.421C23.6176 167.237 23.726 167.064 23.7964 166.902C23.8686 166.738 23.9047 166.567 23.9047 166.389C23.9047 166.183 23.8553 166.005 23.7564 165.855C23.6595 165.705 23.5264 165.589 23.3571 165.507C23.1879 165.426 22.9978 165.385 22.7867 165.385C22.5623 165.385 22.3665 165.431 22.1991 165.524C22.0337 165.616 21.9054 165.744 21.8141 165.909C21.7247 166.075 21.6801 166.269 21.6801 166.491H21.0069C21.0069 166.149 21.0859 165.849 21.2437 165.59C21.4015 165.331 21.6164 165.13 21.8883 164.985C22.1621 164.841 22.4692 164.769 22.8095 164.769C23.1518 164.769 23.4551 164.841 23.7194 164.985C23.9837 165.13 24.1909 165.325 24.3411 165.57C24.4913 165.815 24.5664 166.088 24.5664 166.389C24.5664 166.603 24.5275 166.814 24.4495 167.019C24.3735 167.222 24.2403 167.45 24.0502 167.701C23.862 167.95 23.6005 168.254 23.2659 168.613L21.9539 170.017V170.062H24.6691V170.69H20.9841Z" fill="#A7A7A7"/>
<path d="M28.9879 138.29H33.0089" stroke="#A7A7A7" stroke-width="0.669309"/>
<path d="M20.557 139.238V138.656L23.124 134.594H23.5461V135.496H23.2609L21.3214 138.565V138.61H24.7782V139.238H20.557ZM23.3065 140.436V139.061V138.79V134.594H23.9796V140.436H23.3065Z" fill="#A7A7A7"/>
<path d="M28.9879 108.036H33.0089" stroke="#A7A7A7" stroke-width="0.669309"/>
<path d="M23.4447 110.262C23.2052 110.258 22.9656 110.212 22.726 110.125C22.4864 110.037 22.2677 109.89 22.07 109.683C21.8722 109.473 21.7135 109.191 21.5937 108.836C21.4739 108.478 21.414 108.029 21.414 107.489C21.414 106.972 21.4625 106.514 21.5595 106.115C21.6564 105.713 21.7971 105.376 21.9816 105.102C22.166 104.826 22.3885 104.617 22.649 104.475C22.9114 104.332 23.2071 104.261 23.536 104.261C23.8631 104.261 24.154 104.326 24.4088 104.457C24.6655 104.587 24.8746 104.767 25.0362 104.999C25.1979 105.231 25.3025 105.499 25.35 105.801H24.6541C24.5894 105.538 24.4639 105.321 24.2776 105.148C24.0912 104.975 23.844 104.888 23.536 104.888C23.0835 104.888 22.7269 105.085 22.4664 105.479C22.2078 105.872 22.0776 106.425 22.0757 107.136H22.1213C22.2278 106.974 22.3543 106.836 22.5007 106.722C22.649 106.606 22.8125 106.517 22.9912 106.454C23.17 106.391 23.3592 106.36 23.5588 106.36C23.8935 106.36 24.1996 106.444 24.4772 106.611C24.7548 106.776 24.9773 107.005 25.1446 107.298C25.312 107.589 25.3956 107.923 25.3956 108.299C25.3956 108.661 25.3148 108.991 25.1532 109.292C24.9916 109.59 24.7643 109.828 24.4715 110.005C24.1806 110.18 23.8383 110.265 23.4447 110.262ZM23.4447 109.634C23.6843 109.634 23.8992 109.574 24.0893 109.454C24.2814 109.335 24.4325 109.174 24.5428 108.972C24.655 108.771 24.7111 108.547 24.7111 108.299C24.7111 108.058 24.6569 107.838 24.5485 107.64C24.442 107.441 24.2947 107.282 24.1064 107.164C23.9201 107.046 23.7071 106.987 23.4676 106.987C23.2869 106.987 23.1186 107.023 22.9627 107.096C22.8068 107.166 22.6699 107.263 22.552 107.387C22.436 107.51 22.3448 107.652 22.2782 107.812C22.2117 107.969 22.1784 108.136 22.1784 108.311C22.1784 108.543 22.2326 108.759 22.3409 108.961C22.4512 109.163 22.6014 109.325 22.7916 109.449C22.9836 109.572 23.2014 109.634 23.4447 109.634Z" fill="#A7A7A7"/>
<path d="M28.9879 77.7816H33.0089" stroke="#A7A7A7" stroke-width="0.669309"/>
<path d="M22.7529 83.1805C22.3612 83.1805 22.0151 83.1111 21.7147 82.9723C21.4161 82.8316 21.1832 82.6386 21.0159 82.3933C20.8486 82.1461 20.7658 81.8647 20.7677 81.5491C20.7658 81.3019 20.8143 81.0737 20.9132 80.8645C21.0121 80.6535 21.1471 80.4776 21.3182 80.3369C21.4912 80.1943 21.6842 80.104 21.8972 80.0659V80.0317C21.6177 79.9595 21.3952 79.8026 21.2298 79.5611C21.0644 79.3177 20.9826 79.0411 20.9845 78.7311C20.9826 78.4345 21.0577 78.1692 21.2098 77.9354C21.3619 77.7015 21.5711 77.5171 21.8373 77.382C22.1054 77.247 22.4106 77.1795 22.7529 77.1795C23.0913 77.1795 23.3936 77.247 23.6598 77.382C23.926 77.5171 24.1352 77.7015 24.2873 77.9354C24.4413 78.1692 24.5193 78.4345 24.5212 78.7311C24.5193 79.0411 24.4347 79.3177 24.2674 79.5611C24.1019 79.8026 23.8823 79.9595 23.6085 80.0317V80.0659C23.8196 80.104 24.0097 80.1943 24.1789 80.3369C24.3482 80.4776 24.4832 80.6535 24.5839 80.8645C24.6847 81.0737 24.7361 81.3019 24.738 81.5491C24.7361 81.8647 24.6505 82.1461 24.4813 82.3933C24.3139 82.6386 24.081 82.8316 23.7825 82.9723C23.4859 83.1111 23.1427 83.1805 22.7529 83.1805ZM22.7529 82.553C23.0172 82.553 23.2453 82.5102 23.4374 82.4247C23.6294 82.3391 23.7777 82.2184 23.8823 82.0625C23.9869 81.9065 24.0401 81.724 24.042 81.5148C24.0401 81.2943 23.9831 81.0994 23.8709 80.9301C23.7587 80.7609 23.6057 80.6278 23.4117 80.5308C23.2197 80.4339 23 80.3854 22.7529 80.3854C22.5038 80.3854 22.2813 80.4339 22.0854 80.5308C21.8915 80.6278 21.7384 80.7609 21.6262 80.9301C21.516 81.0994 21.4618 81.2943 21.4637 81.5148C21.4618 81.724 21.5122 81.9065 21.6148 82.0625C21.7194 82.2184 21.8687 82.3391 22.0626 82.4247C22.2566 82.5102 22.4867 82.553 22.7529 82.553ZM22.7529 79.7807C22.962 79.7807 23.1474 79.7389 23.309 79.6552C23.4726 79.5716 23.6009 79.4546 23.6941 79.3044C23.7872 79.1542 23.8348 78.9783 23.8367 78.7768C23.8348 78.579 23.7882 78.4069 23.6969 78.2605C23.6057 78.1122 23.4792 77.9981 23.3176 77.9183C23.156 77.8365 22.9677 77.7956 22.7529 77.7956C22.5342 77.7956 22.3431 77.8365 22.1796 77.9183C22.016 77.9981 21.8896 78.1122 21.8002 78.2605C21.7109 78.4069 21.6671 78.579 21.669 78.7768C21.6671 78.9783 21.7118 79.1542 21.8031 79.3044C21.8963 79.4546 22.0246 79.5716 22.1881 79.6552C22.3517 79.7389 22.5399 79.7807 22.7529 79.7807Z" fill="#A7A7A7"/>
<path d="M34 199.016H434.757" stroke="#CCCCCC" stroke-width="0.669309"/>
<path d="M34 168.762H434.757" stroke="#CCCCCC" stroke-width="0.669309"/>
<path d="M34 138.508H434.757" stroke="#CCCCCC" stroke-width="0.669309"/>
<path d="M34 108.254H434.757" stroke="#CCCCCC" stroke-width="0.669309"/>
<path d="M34 78H434.757" stroke="#CCCCCC" stroke-width="0.669309"/>
<path d="M39.9913 78V199.016" stroke="#CCCCCC" stroke-width="0.669309"/>
<path d="M118.945 78V199.016" stroke="#CCCCCC" stroke-width="0.669309"/>
<path d="M197.898 78V199.016" stroke="#CCCCCC" stroke-width="0.669309"/>
<path d="M276.851 78V199.016" stroke="#CCCCCC" stroke-width="0.669309"/>
<path d="M33.0087 168.665L113.16 120.742L193.312 97.8704L273.463 100.896L353.615 103.679L433.766 119.169" stroke="#28A14B" stroke-width="0.669309"/>
<path d="M33.0087 170.934C34.119 170.934 35.0191 169.918 35.0191 168.665C35.0191 167.412 34.119 166.396 33.0087 166.396C31.8983 166.396 30.9982 167.412 30.9982 168.665C30.9982 169.918 31.8983 170.934 33.0087 170.934Z" fill="white" stroke="#28A14B" stroke-width="0.669309"/>
<path d="M113.16 123.012C114.271 123.012 115.171 121.996 115.171 120.743C115.171 119.489 114.271 118.474 113.16 118.474C112.05 118.474 111.15 119.489 111.15 120.743C111.15 121.996 112.05 123.012 113.16 123.012Z" fill="white" stroke="#28A14B" stroke-width="0.669309"/>
<path d="M193.312 100.139C194.422 100.139 195.322 99.1236 195.322 97.8704C195.322 96.6173 194.422 95.6014 193.312 95.6014C192.201 95.6014 191.301 96.6173 191.301 97.8704C191.301 99.1236 192.201 100.139 193.312 100.139Z" fill="white" stroke="#28A14B" stroke-width="0.669309"/>
<path d="M273.463 103.165C274.574 103.165 275.474 102.149 275.474 100.896C275.474 99.6426 274.574 98.6267 273.463 98.6267C272.353 98.6267 271.453 99.6426 271.453 100.896C271.453 102.149 272.353 103.165 273.463 103.165Z" fill="white" stroke="#28A14B" stroke-width="0.669309"/>
</g>
<path d="M13.2999 211.989H15.5567C16.3123 211.989 16.9676 212.129 17.5226 212.41C18.0776 212.691 18.5022 213.092 18.7964 213.614C19.0973 214.135 19.2477 214.751 19.2477 215.459C19.2477 216.623 18.9101 217.506 18.2347 218.107C17.566 218.702 16.6266 219 15.4163 219H13.2999V211.989ZM15.4062 218.147C16.3424 218.147 17.0445 217.917 17.5125 217.455C17.9806 216.994 18.2146 216.329 18.2146 215.459C18.2146 214.657 17.9839 214.022 17.5226 213.554C17.0679 213.086 16.4159 212.852 15.5667 212.852H14.323V218.147H15.4062ZM21.7738 219.15C21.1921 219.15 20.724 219.003 20.3696 218.709C20.0219 218.408 19.848 218.004 19.848 217.495C19.848 216.961 20.0152 216.549 20.3495 216.262C20.6906 215.968 21.172 215.82 21.7939 215.82C22.4558 215.82 23.0175 215.954 23.4789 216.222V215.971C23.4789 215.59 23.3619 215.309 23.1279 215.128C22.9005 214.941 22.5394 214.848 22.0446 214.848C21.7504 214.848 21.4629 214.878 21.182 214.938C20.9079 214.991 20.6605 215.068 20.4398 215.169V214.346C20.6404 214.252 20.9012 214.179 21.2222 214.125C21.5431 214.065 21.854 214.035 22.1549 214.035C22.9507 214.035 23.5391 214.212 23.9202 214.567C24.308 214.914 24.502 215.399 24.502 216.021V219H23.5491V218.458C23.3418 218.686 23.0944 218.86 22.8069 218.98C22.5261 219.094 22.1817 219.15 21.7738 219.15ZM22.0246 218.378C22.3455 218.378 22.6364 218.315 22.8972 218.188C23.1579 218.061 23.3519 217.883 23.4789 217.656V217.004C23.0443 216.723 22.5595 216.583 22.0246 216.583C21.6367 216.583 21.3459 216.66 21.1519 216.813C20.9647 216.961 20.8711 217.188 20.8711 217.495C20.8711 218.084 21.2556 218.378 22.0246 218.378ZM26.3316 220.986C25.9705 220.986 25.6696 220.949 25.4289 220.876V220.083C25.6027 220.15 25.8167 220.184 26.0708 220.184C26.3048 220.184 26.4887 220.123 26.6224 220.003C26.7562 219.889 26.8765 219.702 26.9835 219.441L27.2142 218.88L25.1079 214.186H26.151L27.7558 217.887L29.2503 214.186H30.2934L28.1269 219.542C27.9263 220.043 27.6856 220.408 27.4048 220.635C27.1306 220.869 26.7729 220.986 26.3316 220.986ZM32.52 219.15C32.1857 219.15 31.8313 219.107 31.4568 219.02C31.0824 218.94 30.7882 218.829 30.5742 218.689V217.826C30.835 217.98 31.1359 218.107 31.4769 218.208C31.8179 218.301 32.1489 218.348 32.4699 218.348C32.8309 218.348 33.0951 218.305 33.2622 218.218C33.4294 218.131 33.513 217.99 33.513 217.796C33.513 217.649 33.4729 217.532 33.3926 217.445C33.3191 217.352 33.1887 217.268 33.0014 217.195C32.8209 217.121 32.5468 217.034 32.179 216.934C31.7845 216.82 31.4702 216.706 31.2362 216.593C31.0088 216.472 30.835 216.322 30.7146 216.141C30.6009 215.961 30.5441 215.727 30.5441 215.439C30.5441 214.978 30.7246 214.63 31.0857 214.396C31.4535 214.156 31.945 214.035 32.5601 214.035C32.8811 214.035 33.1954 214.065 33.5029 214.125C33.8105 214.186 34.0579 214.269 34.2452 214.376V215.219C34.0513 215.105 33.8105 215.015 33.523 214.948C33.2422 214.881 32.9546 214.848 32.6604 214.848C32.306 214.848 32.0352 214.891 31.848 214.978C31.6608 215.065 31.5672 215.219 31.5672 215.439C31.5672 215.58 31.6073 215.693 31.6875 215.78C31.7678 215.867 31.8948 215.944 32.0687 216.011C32.2492 216.071 32.5334 216.151 32.9212 216.252C33.5297 216.419 33.951 216.616 34.185 216.844C34.4257 217.071 34.5461 217.385 34.5461 217.786C34.5461 218.201 34.3756 218.532 34.0345 218.779C33.6935 219.027 33.1887 219.15 32.52 219.15Z" fill="black"/>
<path d="M17.872 22.192H14.4V20.816H22.992V22.192H19.52V32H17.872V22.192ZM23.2275 24.32H24.7955V25.696C25.1155 25.2267 25.5635 24.88 26.1395 24.656C26.7262 24.432 27.4035 24.32 28.1715 24.32V25.584C27.3502 25.584 26.6462 25.7173 26.0595 25.984C25.4728 26.2507 25.0675 26.672 24.8435 27.248V32H23.2275V24.32ZM31.6514 32.24C30.7234 32.24 29.9767 32.0053 29.4114 31.536C28.8567 31.056 28.5794 30.4107 28.5794 29.6C28.5794 28.7467 28.846 28.0907 29.3794 27.632C29.9234 27.1627 30.6914 26.928 31.6834 26.928C32.7394 26.928 33.6354 27.1413 34.3714 27.568V27.168C34.3714 26.56 34.1847 26.112 33.8114 25.824C33.4487 25.5253 32.8727 25.376 32.0834 25.376C31.614 25.376 31.1554 25.424 30.7074 25.52C30.27 25.6053 29.8754 25.728 29.5234 25.888V24.576C29.8434 24.4267 30.2594 24.3093 30.7714 24.224C31.2834 24.128 31.7794 24.08 32.2594 24.08C33.5287 24.08 34.4674 24.3627 35.0754 24.928C35.694 25.4827 36.0034 26.256 36.0034 27.248V32H34.4834V31.136C34.1527 31.4987 33.758 31.776 33.2994 31.968C32.8514 32.1493 32.302 32.24 31.6514 32.24ZM32.0514 31.008C32.5634 31.008 33.0274 30.9067 33.4434 30.704C33.8594 30.5013 34.1687 30.2187 34.3714 29.856V28.816C33.678 28.368 32.9047 28.144 32.0514 28.144C31.4327 28.144 30.9687 28.2667 30.6594 28.512C30.3607 28.7467 30.2114 29.1093 30.2114 29.6C30.2114 30.5387 30.8247 31.008 32.0514 31.008ZM41.7443 32.24C40.8909 32.24 40.1336 32.08 39.4723 31.76C38.8109 31.44 38.2936 30.976 37.9203 30.368C37.5576 29.7493 37.3763 29.0187 37.3763 28.176C37.3763 27.3333 37.5576 26.608 37.9203 26C38.2936 25.3813 38.8109 24.9067 39.4723 24.576C40.1443 24.2453 40.9123 24.08 41.7763 24.08C42.9496 24.08 43.8883 24.3093 44.5923 24.768V26.096C43.8989 25.616 43.0136 25.376 41.9363 25.376C41.0616 25.376 40.3523 25.616 39.8083 26.096C39.2749 26.5653 39.0082 27.2587 39.0082 28.176C39.0082 29.0933 39.2749 29.7867 39.8083 30.256C40.3416 30.7253 41.0403 30.96 41.9043 30.96C42.9816 30.96 43.9096 30.704 44.6883 30.192V31.504C44.3149 31.76 43.8883 31.9467 43.4083 32.064C42.9389 32.1813 42.3843 32.24 41.7443 32.24ZM46.4463 20.176H48.0623V32H46.4463V20.176ZM48.0783 28.112L51.6143 24.32H53.5823L50.0303 28.112L53.9503 32H51.9823L48.0783 28.112ZM65.4935 35.68C64.9708 35.68 64.4588 35.6373 63.9575 35.552C63.4668 35.4667 63.0508 35.344 62.7095 35.184V33.856C63.5095 34.2187 64.4375 34.4 65.4935 34.4C66.4855 34.4 67.2055 34.1813 67.6535 33.744C68.1122 33.3173 68.3415 32.6667 68.3415 31.792V30.976C67.6375 31.8187 66.6028 32.24 65.2375 32.24C64.4588 32.24 63.7602 32.0693 63.1415 31.728C62.5228 31.3867 62.0375 30.9067 61.6855 30.288C61.3335 29.6693 61.1575 28.96 61.1575 28.16C61.1575 27.3493 61.3282 26.64 61.6695 26.032C62.0215 25.4133 62.5015 24.9333 63.1095 24.592C63.7282 24.2507 64.4215 24.08 65.1895 24.08C65.9042 24.08 66.5068 24.1867 66.9975 24.4C67.4988 24.6027 67.9628 24.944 68.3895 25.424V24.32H69.9575V31.616C69.9575 32.928 69.5895 33.9307 68.8535 34.624C68.1282 35.328 67.0082 35.68 65.4935 35.68ZM65.5575 30.96C66.2188 30.96 66.8002 30.784 67.3015 30.432C67.8135 30.08 68.1602 29.6107 68.3415 29.024V27.296C68.1388 26.6987 67.7868 26.2293 67.2855 25.888C66.7948 25.5467 66.2188 25.376 65.5575 25.376C65.0348 25.376 64.5602 25.4933 64.1335 25.728C63.7175 25.952 63.3868 26.2773 63.1415 26.704C62.9068 27.1307 62.7895 27.616 62.7895 28.16C62.7895 28.7147 62.9068 29.2053 63.1415 29.632C63.3868 30.048 63.7175 30.3733 64.1335 30.608C64.5602 30.8427 65.0348 30.96 65.5575 30.96ZM72.04 24.32H73.608V25.696C73.928 25.2267 74.376 24.88 74.952 24.656C75.5387 24.432 76.216 24.32 76.984 24.32V25.584C76.1627 25.584 75.4587 25.7173 74.872 25.984C74.2853 26.2507 73.88 26.672 73.656 27.248V32H72.04V24.32ZM82.2443 32.24C81.3803 32.24 80.6176 32.08 79.9563 31.76C79.3056 31.4293 78.7936 30.96 78.4203 30.352C78.0576 29.7333 77.8763 29.008 77.8763 28.176C77.8763 27.3547 78.0576 26.6347 78.4203 26.016C78.7829 25.3973 79.2949 24.9227 79.9563 24.592C80.6176 24.2507 81.3803 24.08 82.2443 24.08C83.1083 24.08 83.8709 24.2507 84.5323 24.592C85.1936 24.9227 85.7056 25.3973 86.0683 26.016C86.4416 26.6347 86.6283 27.3547 86.6283 28.176C86.6283 29.008 86.4416 29.7333 86.0683 30.352C85.7056 30.96 85.1936 31.4293 84.5323 31.76C83.8709 32.08 83.1083 32.24 82.2443 32.24ZM82.2443 30.96C83.0763 30.96 83.7376 30.704 84.2283 30.192C84.7189 29.68 84.9643 29.008 84.9643 28.176C84.9643 27.312 84.7189 26.6293 84.2283 26.128C83.7376 25.6267 83.0763 25.376 82.2443 25.376C81.4123 25.376 80.7509 25.6267 80.2603 26.128C79.7696 26.6293 79.5243 27.312 79.5243 28.176C79.5243 29.008 79.7696 29.68 80.2603 30.192C80.7509 30.704 81.4123 30.96 82.2443 30.96ZM87.0169 24.32H88.6649L90.3929 30.016L92.1049 24.32H93.5609L95.2729 30.016L97.0009 24.32H98.6649L96.1689 32H94.6169L92.8409 26.272L91.0649 32H89.4969L87.0169 24.32ZM103.156 32.24C102.378 32.24 101.775 32.016 101.348 31.568C100.932 31.12 100.724 30.4853 100.724 29.664V25.568H99.5563V24.32H100.724V22.016H102.356V24.32H104.244V25.568H102.356V29.552C102.356 30.064 102.452 30.4267 102.644 30.64C102.847 30.8533 103.21 30.96 103.732 30.96C104.042 30.96 104.351 30.8907 104.66 30.752V32.032C104.255 32.1707 103.754 32.24 103.156 32.24ZM106.181 20.176H107.797V25.376C108.533 24.512 109.514 24.08 110.741 24.08C111.765 24.08 112.527 24.352 113.029 24.896C113.53 25.44 113.781 26.1707 113.781 27.088V32H112.165V27.248C112.165 26 111.567 25.376 110.373 25.376C109.861 25.376 109.381 25.4987 108.933 25.744C108.495 25.9787 108.117 26.3413 107.797 26.832V32H106.181V20.176Z" fill="#379777"/>
</g>
<defs>
<clipPath id="clip0_56_494">
<rect width="338" height="252" fill="white"/>
</clipPath>
<clipPath id="clip1_56_494">
<rect width="360" height="151" fill="white" transform="translate(6 74)"/>
</clipPath>
</defs>
</svg>
