<svg width="329" height="329" viewBox="0 0 329 329" fill="none" xmlns="http://www.w3.org/2000/svg">
<g clip-path="url(#clip0_8_253)">
<path d="M329 0.000762939H0V329.001H329V0.000762939Z" fill="white"/>
<path fill-rule="evenodd" clip-rule="evenodd" d="M49.7764 172.277C62.2501 172.277 72.4241 162.104 72.4241 149.63C72.4241 137.156 62.2501 126.982 49.7764 126.982C37.3027 126.982 27.1287 137.156 27.1287 149.63C27.1287 162.104 37.3027 172.277 49.7764 172.277Z" fill="#D1E6DF"/>
<path fill-rule="evenodd" clip-rule="evenodd" d="M174.788 301.404C187.263 301.404 197.437 291.232 197.437 278.757C197.437 266.285 187.263 256.11 174.788 256.11C162.315 256.11 152.142 266.285 152.142 278.757C152.142 291.232 162.315 301.404 174.788 301.404Z" fill="#D1E6DF"/>
<path fill-rule="evenodd" clip-rule="evenodd" d="M279.223 174.85C291.698 174.85 301.871 164.676 301.871 152.202C301.871 139.728 291.698 129.554 279.223 129.554C266.751 129.554 256.576 139.728 256.576 152.202C256.576 164.676 266.751 174.85 279.223 174.85Z" fill="#D1E6DF"/>
<path d="M215.709 50.475C219.25 42.0934 215.325 32.4289 206.943 28.8886C198.562 25.3484 188.897 29.2731 185.357 37.6547C181.817 46.0362 185.742 55.7007 194.123 59.241C202.505 62.7812 212.169 58.8566 215.709 50.475Z" fill="#D1E6DF"/>
<path fill-rule="evenodd" clip-rule="evenodd" d="M259.119 88.4852C269.015 88.4852 277.086 80.4141 277.086 70.5191C277.086 60.6241 269.015 52.5531 259.119 52.5531C249.225 52.5531 241.154 60.6241 241.154 70.5191C241.154 80.4141 249.225 88.4852 259.119 88.4852Z" fill="#ECBD78"/>
<path fill-rule="evenodd" clip-rule="evenodd" d="M260.949 48.3531C260.873 49.2967 260.083 50.0389 259.119 50.0389C258.156 50.0389 257.365 49.2967 257.289 48.3531L256.403 41.3184C256.378 41.1677 256.364 41.0144 256.364 40.8572C256.364 39.3359 257.598 38.1028 259.119 38.1028C260.641 38.1028 261.873 39.3359 261.873 40.8572C261.873 41.0144 261.86 41.1684 261.836 41.3184L260.949 48.3531Z" fill="#D08174"/>
<path fill-rule="evenodd" clip-rule="evenodd" d="M260.949 92.6865C260.873 91.7416 260.083 91.0001 259.119 91.0001C258.156 91.0001 257.365 91.7416 257.289 92.6865L256.403 99.7205C256.378 99.8699 256.364 100.025 256.364 100.181C256.364 101.703 257.598 102.936 259.119 102.936C260.641 102.936 261.873 101.703 261.873 100.181C261.873 100.025 261.86 99.8699 261.836 99.7205L260.949 92.6865Z" fill="#D08174"/>
<path fill-rule="evenodd" clip-rule="evenodd" d="M271.788 52.2373C271.25 53.017 270.195 53.2644 269.36 52.7821C268.525 52.3004 268.212 51.2628 268.618 50.4074L271.368 43.8721C271.422 43.7293 271.487 43.5892 271.565 43.453C272.326 42.1356 274.011 41.6843 275.328 42.4456C276.646 43.2062 277.097 44.8907 276.337 46.208C276.257 46.3442 276.17 46.4705 276.072 46.5877L271.788 52.2373Z" fill="#D08174"/>
<path fill-rule="evenodd" clip-rule="evenodd" d="M249.62 90.6316C250.026 89.7755 249.714 88.7379 248.879 88.2562C248.044 87.7745 246.99 88.0226 246.451 88.8017L242.166 94.4506C242.07 94.5684 241.98 94.6947 241.901 94.8309C241.142 96.1489 241.593 97.8334 242.911 98.594C244.229 99.354 245.911 98.9033 246.673 97.5853C246.753 97.4491 246.817 97.309 246.871 97.1668L249.62 90.6316Z" fill="#D08174"/>
<path fill-rule="evenodd" clip-rule="evenodd" d="M279.232 61.0209C278.375 61.4269 277.337 61.1137 276.855 60.2793C276.374 59.4443 276.622 58.3896 277.4 57.8513L283.05 53.5664C283.167 53.4697 283.294 53.3815 283.43 53.3032C284.748 52.5426 286.431 52.994 287.193 54.3113C287.954 55.6286 287.502 57.3137 286.185 58.0737C286.048 58.1527 285.908 58.2178 285.767 58.2711L279.232 61.0209Z" fill="#D08174"/>
<path fill-rule="evenodd" clip-rule="evenodd" d="M240.838 83.1876C241.617 82.6494 241.864 81.5939 241.383 80.7596C240.901 79.9252 239.862 79.612 239.008 80.018L232.473 82.7678C232.33 82.8211 232.19 82.8869 232.054 82.9652C230.736 83.7258 230.285 85.411 231.045 86.7283C231.806 88.0463 233.491 88.497 234.809 87.7364C234.944 87.6581 235.07 87.5692 235.188 87.4725L240.838 83.1876Z" fill="#D08174"/>
<path fill-rule="evenodd" clip-rule="evenodd" d="M281.285 72.3497C280.342 72.2734 279.6 71.4838 279.6 70.5198C279.6 69.5565 280.342 68.7656 281.285 68.6899L288.32 67.8036C288.47 67.7786 288.623 67.7647 288.781 67.7647C290.303 67.7647 291.535 68.9978 291.535 70.5198C291.535 72.0411 290.302 73.2742 288.781 73.2742C288.623 73.2742 288.47 73.261 288.32 73.2354L281.285 72.3497Z" fill="#D08174"/>
<path fill-rule="evenodd" clip-rule="evenodd" d="M236.952 72.3497C237.896 72.2734 238.638 71.4838 238.638 70.5198C238.638 69.5565 237.895 68.7656 236.952 68.6899L229.918 67.8036C229.768 67.7786 229.613 67.7647 229.456 67.7647C227.936 67.7647 226.703 68.9978 226.703 70.5198C226.703 72.0411 227.936 73.2742 229.456 73.2742C229.613 73.2742 229.769 73.261 229.918 73.2354L236.952 72.3497Z" fill="#D08174"/>
<path fill-rule="evenodd" clip-rule="evenodd" d="M277.4 83.1876C276.621 82.6494 276.374 81.5939 276.855 80.7596C277.337 79.9252 278.375 79.612 279.231 80.018L285.767 82.7678C285.908 82.8211 286.048 82.8869 286.185 82.9652C287.502 83.7258 287.954 85.411 287.193 86.7283C286.433 88.0463 284.747 88.497 283.43 87.7364C283.294 87.6581 283.167 87.5692 283.05 87.4725L277.4 83.1876Z" fill="#D08174"/>
<path fill-rule="evenodd" clip-rule="evenodd" d="M239.007 61.0209C239.862 61.4269 240.9 61.1137 241.382 60.2793C241.862 59.4443 241.616 58.3896 240.837 57.8513L235.188 53.5664C235.069 53.4697 234.943 53.3815 234.809 53.3032C233.49 52.5426 231.805 52.9933 231.044 54.3113C230.285 55.6286 230.736 57.3137 232.053 58.0737C232.189 58.1527 232.329 58.2178 232.472 58.2711L239.007 61.0209Z" fill="#D08174"/>
<path fill-rule="evenodd" clip-rule="evenodd" d="M268.617 90.6316C268.211 89.7755 268.525 88.7379 269.359 88.2562C270.194 87.7746 271.249 88.0226 271.788 88.801L276.071 94.4506C276.169 94.5684 276.256 94.6947 276.336 94.8309C277.096 96.1489 276.644 97.8334 275.327 98.594C274.01 99.354 272.324 98.9033 271.564 97.5853C271.486 97.4491 271.421 97.309 271.367 97.1668L268.617 90.6316Z" fill="#D08174"/>
<path fill-rule="evenodd" clip-rule="evenodd" d="M246.451 52.2373C246.99 53.017 248.045 53.2644 248.879 52.7821C249.714 52.3005 250.027 51.2628 249.621 50.4074L246.872 43.8721C246.818 43.7293 246.753 43.5892 246.674 43.453C245.912 42.1357 244.229 41.6843 242.912 42.4456C241.593 43.2062 241.143 44.8907 241.902 46.208C241.981 46.3442 242.07 46.4706 242.166 46.5877L246.451 52.2373Z" fill="#D08174"/>
<path fill-rule="evenodd" clip-rule="evenodd" d="M82.8527 224.015H45.0756C40.7578 224.015 37.225 227.548 37.225 231.865V262.206C37.225 266.524 40.7578 270.057 45.0756 270.057H82.8527C87.1712 270.057 90.7033 266.524 90.7033 262.206V231.865C90.7033 227.548 87.1712 224.015 82.8527 224.015ZM82.8527 226.589C85.7492 226.589 88.1292 228.969 88.1292 231.865V244.819V246.393C88.1292 248.005 86.8113 249.324 85.1985 249.324H42.7299C41.1178 249.324 39.7991 248.005 39.7991 246.393V244.819V231.865C39.7991 228.97 42.1785 226.589 45.0756 226.589H82.8527ZM87.8187 263.979C87.0856 266.014 85.1281 267.484 82.8527 267.484H45.0756C42.7996 267.484 40.8434 266.014 40.1091 263.979H87.8187Z" fill="#BE7775"/>
<path fill-rule="evenodd" clip-rule="evenodd" d="M113.65 252.325H37.225V257.691V270.484V278.419C37.225 281.369 39.6386 283.783 42.5891 283.783H113.65C116.6 283.783 119.013 281.369 119.013 278.419V257.691C119.014 254.739 116.6 252.325 113.65 252.325Z" fill="#D08174"/>
<path fill-rule="evenodd" clip-rule="evenodd" d="M88.1292 251.286H87.3317V283.784H88.1292V251.286ZM40.5966 251.286H39.7991V282.968C40.0525 283.129 40.319 283.269 40.5966 283.385V251.286Z" fill="#BE7775"/>
<path fill-rule="evenodd" clip-rule="evenodd" d="M119.014 269.947V257.935H112.688C110.841 257.935 109.329 259.447 109.329 261.296V266.586C109.329 268.434 110.841 269.946 112.688 269.946H119.014V269.947Z" fill="#AB6A6E"/>
<path fill-rule="evenodd" clip-rule="evenodd" d="M119.014 274.558H37.2257C36.3209 274.558 35.5807 275.299 35.5807 276.202V284.926C35.5807 285.829 36.3209 286.57 37.2257 286.57H119.014C119.919 286.57 120.658 285.829 120.658 284.926V276.202C120.658 275.299 119.919 274.558 119.014 274.558Z" fill="#413B73"/>
<path fill-rule="evenodd" clip-rule="evenodd" d="M98.7138 269.104C97.0352 269.459 95.4699 270.12 94.0789 271.024L93.9025 270.849C93.4695 270.416 92.7622 270.416 92.3292 270.849L89.8624 273.315C89.4294 273.747 89.4294 274.455 89.8624 274.889L90.0381 275.064C89.132 276.455 88.4701 278.022 88.1154 279.701H87.8693C87.2567 279.701 86.7573 280.201 86.7573 280.813V284.3C86.7573 284.913 87.2574 285.413 87.8693 285.413H88.1161C88.4714 287.091 89.1327 288.658 90.0381 290.048L89.8624 290.223C89.4294 290.656 89.4294 291.364 89.8624 291.798L92.3292 294.264C92.7615 294.696 93.4689 294.696 93.9025 294.264L94.0789 294.087C95.4699 294.994 97.0352 295.655 98.7138 296.009V296.257C98.7138 296.868 99.2145 297.369 99.8258 297.369H103.314C103.926 297.369 104.427 296.867 104.427 296.257V296.009C106.104 295.655 107.67 294.994 109.062 294.087L109.238 294.264C109.671 294.696 110.378 294.696 110.811 294.264L113.277 291.798C113.71 291.365 113.71 290.657 113.277 290.225L113.102 290.048C114.007 288.658 114.668 287.091 115.023 285.413H115.27C115.882 285.413 116.383 284.913 116.383 284.3V280.813C116.383 280.2 115.882 279.701 115.27 279.701H115.022C114.668 278.022 114.007 276.455 113.101 275.065L113.277 274.889C113.71 274.456 113.71 273.748 113.277 273.315L110.811 270.849C110.378 270.416 109.671 270.416 109.238 270.849L109.062 271.024C107.67 270.12 106.104 269.459 104.427 269.104V268.856C104.427 268.244 103.926 267.745 103.314 267.745H99.8258C99.2139 267.745 98.7138 268.245 98.7138 268.856V269.104Z" fill="#30295E"/>
<path fill-rule="evenodd" clip-rule="evenodd" d="M101.57 292.971C107.306 292.971 111.984 288.293 111.984 282.556C111.984 276.821 107.306 272.143 101.57 272.143C95.8344 272.143 91.1567 276.821 91.1567 282.556C91.1567 288.293 95.8351 292.971 101.57 292.971Z" fill="white"/>
<path fill-rule="evenodd" clip-rule="evenodd" d="M101.57 274.316C97.0195 274.316 93.33 278.005 93.33 282.556C93.33 287.108 97.0195 290.797 101.57 290.797C106.122 290.797 109.811 287.108 109.811 282.556C109.812 278.005 106.122 274.316 101.57 274.316Z" fill="#E9BAA8"/>
<path fill-rule="evenodd" clip-rule="evenodd" d="M101.57 288.422C104.8 288.422 107.435 285.787 107.435 282.556C107.435 279.327 104.8 276.692 101.57 276.692C98.3401 276.692 95.7054 279.327 95.7054 282.556C95.7054 285.787 98.3401 288.422 101.57 288.422Z" fill="#30295E"/>
<path fill-rule="evenodd" clip-rule="evenodd" d="M56.0649 257.395C53.6908 257.898 51.4766 258.832 49.5092 260.113L49.2605 259.865C48.6479 259.252 47.6471 259.252 47.0358 259.865L43.5471 263.353C42.9351 263.964 42.9351 264.965 43.5471 265.577L43.7965 265.826C42.5147 267.793 41.5797 270.008 41.0783 272.382H40.7295C39.8636 272.382 39.1562 273.09 39.1562 273.955V278.889C39.1562 279.754 39.8629 280.461 40.7295 280.461H41.0783C41.581 282.834 42.516 285.049 43.7965 287.018L43.5471 287.266C42.9351 287.878 42.9351 288.878 43.5471 289.49L47.0358 292.978C47.6471 293.59 48.6479 293.59 49.2605 292.978L49.5092 292.729C51.4766 294.01 53.6902 294.945 56.0649 295.447V295.797C56.0649 296.662 56.7722 297.37 57.6382 297.37H62.5705C63.4358 297.37 64.1438 296.662 64.1438 295.797V295.447C66.5172 294.945 68.7314 294.01 70.6995 292.729L70.9488 292.978C71.5601 293.59 72.5609 293.59 73.1729 292.978L76.6609 289.49C77.2735 288.878 77.2735 287.878 76.6609 287.266L76.4122 287.018C77.694 285.05 78.629 282.835 79.1304 280.461H79.4791C80.3444 280.461 81.0524 279.754 81.0524 278.889V273.955C81.0524 273.09 80.3451 272.382 79.4791 272.382H79.1291C78.6277 270.008 77.6927 267.795 76.4116 265.826L76.6609 265.577C77.2735 264.965 77.2735 263.964 76.6609 263.353L73.1729 259.865C72.5609 259.252 71.5601 259.252 70.9488 259.865L70.6995 260.113C68.732 258.832 66.5179 257.898 64.1438 257.395V257.047C64.1438 256.181 63.4365 255.474 62.5705 255.474H57.6382C56.7729 255.474 56.0649 256.18 56.0649 257.047V257.395Z" fill="#30295E"/>
<path fill-rule="evenodd" clip-rule="evenodd" d="M60.1037 291.149C68.2155 291.149 74.8317 284.532 74.8317 276.421C74.8317 268.309 68.2155 261.694 60.1037 261.694C51.9925 261.694 45.3763 268.309 45.3763 276.421C45.3763 284.532 51.9925 291.149 60.1037 291.149Z" fill="white"/>
<path fill-rule="evenodd" clip-rule="evenodd" d="M60.1037 264.767C53.6678 264.767 48.4499 269.985 48.4499 276.421C48.4499 282.856 53.6678 288.074 60.1037 288.074C66.5403 288.074 71.7582 282.856 71.7582 276.421C71.7582 269.985 66.5403 264.767 60.1037 264.767Z" fill="#E9BAA8"/>
<path fill-rule="evenodd" clip-rule="evenodd" d="M60.1037 284.715C64.6722 284.715 68.3978 280.988 68.3978 276.421C68.3978 271.853 64.6722 268.128 60.1037 268.128C55.5359 268.128 51.8103 271.853 51.8103 276.421C51.8103 280.988 55.5352 284.715 60.1037 284.715Z" fill="#30295E"/>
<path fill-rule="evenodd" clip-rule="evenodd" d="M119.014 258.758C120.194 258.758 121.16 259.722 121.16 260.902V266.98C121.16 268.158 120.194 269.125 119.014 269.125H119.014C117.835 269.125 116.869 268.158 116.869 266.98V260.902C116.869 259.722 117.835 258.758 119.014 258.758Z" fill="#30295E"/>
<path fill-rule="evenodd" clip-rule="evenodd" d="M119.3 259.992C119.89 259.992 120.373 260.474 120.373 261.064V264.101C120.373 264.69 119.89 265.173 119.301 265.173C118.71 265.173 118.228 264.691 118.228 264.101V261.064C118.228 260.475 118.71 259.992 119.3 259.992Z" fill="#413B73"/>
<path fill-rule="evenodd" clip-rule="evenodd" d="M114.224 260.403C115.03 260.403 115.689 261.062 115.689 261.868V266.017C115.689 266.823 115.03 267.481 114.224 267.481C113.419 267.481 112.759 266.823 112.759 266.017V261.868C112.759 261.062 113.419 260.403 114.224 260.403Z" fill="#30295E"/>
<path fill-rule="evenodd" clip-rule="evenodd" d="M88.1292 246.392C88.1292 248.005 86.8113 249.323 85.1985 249.323H42.7299C41.1178 249.323 39.7991 248.005 39.7991 246.392V244.819V231.864C39.7991 228.969 42.1785 226.588 45.0756 226.588H82.8527C85.7492 226.588 88.1292 228.968 88.1292 231.864V244.819V246.392Z" fill="#CAD8EE"/>
<path fill-rule="evenodd" clip-rule="evenodd" d="M45.4843 247.78C45.633 247.831 45.7915 247.858 45.956 247.858H56.8683L76.6741 228.052H65.2104L45.4843 247.78ZM61.2789 247.858L81.0847 228.052H85.6696L65.8638 247.858H61.2789Z" fill="white"/>
<path fill-rule="evenodd" clip-rule="evenodd" d="M254.637 297.369C273.082 297.369 288.124 282.326 288.124 263.882C288.124 245.439 273.083 230.396 254.637 230.396C236.194 230.396 221.152 245.439 221.152 263.882C221.152 282.326 236.194 297.369 254.637 297.369Z" fill="#A0CDBC"/>
<path fill-rule="evenodd" clip-rule="evenodd" d="M254.637 230.398C270.081 230.398 282.601 245.389 282.601 263.883C282.601 282.376 270.081 297.369 254.637 297.369C239.195 297.369 226.675 282.377 226.675 263.883C226.675 245.389 239.196 230.398 254.637 230.398Z" fill="#789EAE"/>
<path fill-rule="evenodd" clip-rule="evenodd" d="M254.637 297.369C266.467 297.369 276.115 282.326 276.115 263.882C276.115 245.439 266.468 230.396 254.637 230.396C242.809 230.396 233.161 245.439 233.161 263.882C233.161 282.326 242.809 297.369 254.637 297.369Z" fill="#A0CDBC"/>
<path fill-rule="evenodd" clip-rule="evenodd" d="M254.637 297.369C261.798 297.369 267.64 282.326 267.64 263.882C267.64 245.439 261.798 230.396 254.637 230.396C247.478 230.396 241.638 245.439 241.638 263.882C241.638 282.326 247.478 297.369 254.637 297.369Z" fill="#789EAE"/>
<path fill-rule="evenodd" clip-rule="evenodd" d="M254.637 230.398C257.787 230.398 260.34 245.389 260.34 263.883C260.34 282.376 257.787 297.369 254.637 297.369C251.489 297.369 248.937 282.377 248.937 263.883C248.937 245.389 251.489 230.398 254.637 230.398Z" fill="#A0CDBC"/>
<path fill-rule="evenodd" clip-rule="evenodd" d="M224.273 274.913C224.273 274.913 222.44 273.269 222.477 271.452C222.515 269.637 223.429 269.084 223.441 268.613C223.454 268.142 222.521 267.357 221.215 267.571C219.91 267.784 220.733 268.856 220.481 270.731C220.229 272.604 219.752 274.218 218.472 275.191C217.192 276.163 224.273 274.913 224.273 274.913Z" fill="#30295E"/>
<path fill-rule="evenodd" clip-rule="evenodd" d="M221.76 275.816C221.558 275.691 221.155 275.471 220.5 275.262C211.071 272.269 205.657 279.771 206.837 286.874C207.913 293.355 213.377 297.742 221.76 295.547C230.143 297.742 235.609 293.355 236.685 286.874C237.865 279.771 232.452 272.27 223.021 275.262C222.367 275.471 221.962 275.691 221.76 275.816Z" fill="#D08174"/>
<path fill-rule="evenodd" clip-rule="evenodd" d="M221.761 275.178C221.921 275.042 222.24 274.809 222.757 274.587C230.201 271.393 234.475 279.399 233.543 286.977C232.694 293.893 228.379 298.572 221.761 296.229C215.144 298.572 210.83 293.892 209.979 286.977C209.049 279.399 213.323 271.392 220.767 274.587C221.283 274.809 221.603 275.042 221.761 275.178Z" fill="#BE7775"/>
<path fill-rule="evenodd" clip-rule="evenodd" d="M217.578 295.359C212.928 289.757 212.545 273.86 221.76 273.946C230.719 273.862 230.609 288.879 226.326 294.867C224.154 297.902 220.022 298.307 217.578 295.359Z" fill="#D08174"/>
<path fill-rule="evenodd" clip-rule="evenodd" d="M243.09 280.689C243.09 280.689 241.728 279.468 241.756 278.119C241.783 276.771 242.463 276.361 242.473 276.01C242.482 275.661 241.788 275.077 240.819 275.235C239.848 275.394 240.46 276.191 240.273 277.583C240.086 278.974 239.73 280.174 238.78 280.896C237.829 281.618 243.09 280.689 243.09 280.689Z" fill="#30295E"/>
<path fill-rule="evenodd" clip-rule="evenodd" d="M241.225 281.361C241.073 281.265 240.773 281.104 240.288 280.95C233.283 278.726 229.264 284.299 230.139 289.574C230.938 294.388 234.997 297.646 241.225 296.014C247.451 297.646 251.51 294.388 252.309 289.574C253.186 284.299 249.166 278.726 242.16 280.95C241.674 281.104 241.373 281.266 241.225 281.361Z" fill="#CA8874"/>
<path fill-rule="evenodd" clip-rule="evenodd" d="M241.225 280.886C241.343 280.784 241.579 280.611 241.964 280.447C247.494 278.073 250.668 284.02 249.976 289.648C249.346 294.787 246.139 298.263 241.225 296.521C236.308 298.262 233.104 294.786 232.473 289.648C231.781 284.019 234.955 278.073 240.485 280.447C240.869 280.611 241.106 280.784 241.225 280.886Z" fill="#DBA376"/>
<path fill-rule="evenodd" clip-rule="evenodd" d="M238.116 295.877C234.661 291.714 234.378 279.906 241.225 279.97C247.878 279.909 247.797 291.063 244.615 295.51C243.001 297.765 239.932 298.065 238.116 295.877Z" fill="#ECBD78"/>
<path d="M221.564 228.008C253.211 196.361 253.211 145.051 221.564 113.404C189.917 81.7571 138.607 81.7571 106.96 113.404C75.3131 145.051 75.3131 196.361 106.96 228.008C138.607 259.655 189.917 259.655 221.564 228.008Z" fill="#A0CDBC"/>
<path fill-rule="evenodd" clip-rule="evenodd" d="M150.943 45.3244L162.092 44.2387C171.202 43.3517 179.381 50.0791 180.27 59.1897L182.894 86.1407C183.781 95.2508 177.053 103.43 167.942 104.318L156.793 105.403C147.682 106.291 139.503 99.5626 138.616 90.452L135.992 63.5009C135.104 54.3916 141.832 46.2113 150.943 45.3244Z" fill="#D08174"/>
<path fill-rule="evenodd" clip-rule="evenodd" d="M158.697 54.2712C132.765 57.525 111.603 67.4628 111.43 76.4668C111.257 85.4702 132.139 90.1315 158.071 86.877C184.003 83.6232 205.166 73.6855 205.338 64.6821C205.51 55.678 184.629 51.0167 158.697 54.2712Z" fill="#BE7775"/>
<path fill-rule="evenodd" clip-rule="evenodd" d="M128.464 86.9317C136.509 88.2095 146.814 88.2898 158.07 86.8777C168.722 85.5407 178.566 83.0764 186.484 80.0121L180.855 70.156L174.231 72.9715L139.107 69.9711L128.464 86.9317Z" fill="#875371"/>
<path fill-rule="evenodd" clip-rule="evenodd" d="M150.065 114.592C150.065 114.592 152.068 113.875 154.897 114.185C157.725 114.495 172.049 114.185 172.049 114.185C172.049 114.185 174.152 114.556 175.239 115.391L175.114 117.079C175.114 117.079 165.856 120.249 165.601 120.249C165.345 120.249 153.385 119.398 153.385 119.398C153.385 119.398 149.81 117.44 150.065 114.592Z" fill="#30295E"/>
<path d="M173.614 109.452H151.835V125.058H173.614V109.452Z" fill="#D58881"/>
<path fill-rule="evenodd" clip-rule="evenodd" d="M179.129 125.204C179.129 125.204 200.936 133.837 202.785 134.874C204.635 135.911 205.471 136.767 205.471 136.767C205.471 136.767 202.347 150.943 203.483 169.908C204.25 182.74 202.5 198.953 201.287 208.094H123.47C124.753 198.736 125.969 189.733 126.302 186.616C127.06 179.518 121.222 142.902 119.086 137.292L145.95 124.311C147.638 123.673 149.553 122.525 149.575 120.551C149.611 117.439 149.603 118.154 149.638 115.043C149.638 115.043 149.81 114.639 150.065 114.591C155.229 119.077 169.761 119.264 175.239 115.391C175.494 115.445 175.656 115.853 175.656 115.853C175.621 118.964 175.629 118.251 175.593 121.362C175.568 123.336 177.456 124.527 179.129 125.204Z" fill="#413B73"/>
<path fill-rule="evenodd" clip-rule="evenodd" d="M203.339 156.046C203.18 160.216 203.183 164.894 203.483 169.908C204.129 180.716 202.99 193.921 201.891 203.281C184.541 204.556 160.198 204.457 152.309 202.441C142.418 199.916 130.537 199.845 124.752 198.661C125.492 193.17 126.083 188.645 126.301 186.617C126.693 182.953 125.326 171.423 123.619 160.354C127.029 168.876 133.402 168.585 133.402 168.585C133.402 168.585 186.464 165.284 194.563 163.901C202.663 162.516 202.948 155.737 202.948 155.737L203.339 156.046Z" fill="#30295E"/>
<path fill-rule="evenodd" clip-rule="evenodd" d="M193.593 166.364C193.593 166.364 139.145 168.984 136.43 169.631C133.715 170.277 130.985 172.276 131.197 177.423C131.407 182.569 129.263 220.169 118.629 222.491C118.629 222.491 118.124 231.014 118.091 233.856C118.087 234.257 117.941 235.388 117.695 237.031C130.871 246.299 146.931 251.744 164.264 251.744C180.495 251.744 195.608 246.97 208.283 238.751C206.602 227.225 202.613 205.995 202.613 205.995C202.613 205.995 197.116 177.909 196.483 173.977C195.852 170.044 195.896 166.288 193.593 166.364Z" fill="#D08174"/>
<path fill-rule="evenodd" clip-rule="evenodd" d="M123.186 218.819C121.875 220.786 120.366 222.111 118.629 222.49C118.629 222.49 118.124 231.013 118.092 233.856C118.089 234.123 118.145 234.436 118.248 234.781C121.683 234.568 128.13 234.227 132.841 232.465C137.552 230.703 172.397 209.277 172.397 209.277L206.171 225.741C205.496 218.622 203.076 210.277 202.756 207.307L170.45 197.086L123.186 218.819Z" fill="#BE7775"/>
<path fill-rule="evenodd" clip-rule="evenodd" d="M130.454 194.285L131.993 194.251C131.993 194.251 139.577 193.586 145.332 193.655C151.085 193.727 183.849 187.404 190.562 186.33C197.276 185.257 200.674 185.209 204.235 186.85C207.796 188.491 204.091 198.805 204.091 198.805L197.372 206.171L194.994 205.012C194.994 205.012 184.148 202.636 181.845 202.744C179.543 202.853 138.167 222.276 135.719 223.196C133.272 224.115 130.454 194.285 130.454 194.285Z" fill="#E9BAA8"/>
<path fill-rule="evenodd" clip-rule="evenodd" d="M174.151 205.796C172.655 206.446 171.006 207.177 169.255 207.959L151.455 196.364L154.566 195.336L177.161 203.246L174.151 205.796Z" fill="#D58881"/>
<path fill-rule="evenodd" clip-rule="evenodd" d="M119.085 137.294C119.085 137.294 109.901 141.417 108.057 154.594C106.213 167.771 106.595 178.673 104.796 187.958C102.997 197.243 101.017 207.544 102.451 215.344C103.884 223.144 111.422 229.66 121.073 229.263C125.089 229.135 134.743 227.568 135.459 227.103C136.175 226.636 136.363 226.141 136.363 226.141C138.991 213.592 134.063 194.327 133.9 193.794C133.737 193.259 133.212 193.255 133.212 193.255C132.355 193.298 128.214 193.657 126.52 193.805C126.215 193.82 125.971 193.841 125.795 193.868C125.795 193.868 127.016 191.882 125.66 191.825C125.66 191.825 126.527 189.114 126.843 183.702C127.16 178.29 121.908 142.189 119.085 137.294Z" fill="#875371"/>
<path fill-rule="evenodd" clip-rule="evenodd" d="M194.881 192.008C194.881 192.008 164.71 187.701 159.842 187.17C154.975 186.64 143.551 190.552 140.94 191.428C138.327 192.303 137.867 193.851 137.867 193.851L145.333 193.655C145.333 193.655 153.936 197.286 159.181 200.188C164.428 203.092 193.793 215.749 194.872 216.031C195.951 216.316 194.881 192.008 194.881 192.008Z" fill="#E9BAA8"/>
<path fill-rule="evenodd" clip-rule="evenodd" d="M205.472 136.766C215.257 140.243 220.301 167.09 224.807 177.551C233.699 198.193 227.606 220.793 206.703 220.162L206.705 220.171C204.775 220.356 195.317 218.648 193.905 217.819C192.495 216.99 189.225 209.469 190.168 201.464C191.112 193.459 194.724 190.858 194.724 190.858L200.539 191.147C200.539 191.147 200.689 189.203 202.547 189.52L203.456 185.038C203.456 185.038 201.07 148.807 205.472 136.766Z" fill="#875371"/>
<path fill-rule="evenodd" clip-rule="evenodd" d="M190.275 129.654C190.275 129.654 191.402 158.19 191.882 163.339C191.882 163.339 192.076 164.153 191.127 164.38C190.177 164.605 187.671 164.712 187.671 164.712C187.671 164.712 186.96 164.67 186.73 164.058C186.501 163.447 183.691 127.018 183.691 127.018C183.691 127.018 184.168 126.818 184.37 126.837C184.574 126.856 189.73 128.828 189.73 128.828C189.73 128.828 190.133 129.036 190.275 129.654Z" fill="#D08174"/>
<path fill-rule="evenodd" clip-rule="evenodd" d="M136.136 129.054C136.217 130.039 138.937 160.995 139.414 166.077C139.414 166.077 139.607 166.892 138.658 167.118C137.708 167.345 135.202 167.451 135.202 167.451C135.202 167.451 134.467 167.343 134.262 166.796C134.057 166.251 131.434 144.365 130.133 131.955C130.252 131.774 130.224 131.516 130.468 131.301C131.628 130.278 134.193 129.064 135.545 128.896C135.729 128.872 135.996 129.038 136.136 129.054Z" fill="#D08174"/>
<path fill-rule="evenodd" clip-rule="evenodd" d="M135.809 165.848L137.701 165.642C137.916 165.621 138.121 165.688 138.278 165.814C138.437 165.942 138.547 166.129 138.571 166.347L138.963 169.946C138.987 170.163 138.919 170.371 138.791 170.529C138.664 170.687 138.475 170.799 138.258 170.822L136.358 171.029C136.143 171.049 135.938 170.983 135.781 170.856C135.623 170.729 135.512 170.541 135.488 170.324C135.368 169.122 135.22 167.92 135.095 166.717C135.074 166.503 135.141 166.298 135.268 166.142C135.395 165.982 135.584 165.872 135.801 165.849L135.809 165.848ZM137.737 166.166L135.85 166.373C135.78 166.382 135.718 166.419 135.676 166.471C135.635 166.521 135.613 166.59 135.618 166.66C135.732 167.856 135.87 169.079 136.012 170.274C136.021 170.344 136.057 170.405 136.111 170.448C136.161 170.489 136.229 170.512 136.299 170.506L138.202 170.3C138.275 170.292 138.339 170.254 138.383 170.2C138.426 170.146 138.449 170.075 138.441 170L138.048 166.396C138.038 166.326 138.001 166.264 137.949 166.221C137.898 166.18 137.83 166.158 137.76 166.163L137.737 166.166Z" fill="white"/>
<path fill-rule="evenodd" clip-rule="evenodd" d="M188.236 162.896L190.128 162.69C190.342 162.669 190.548 162.736 190.705 162.863C190.863 162.99 190.973 163.178 190.998 163.395L191.39 166.992C191.414 167.21 191.346 167.418 191.217 167.576C191.092 167.735 190.902 167.846 190.684 167.869L188.785 168.076C188.57 168.097 188.366 168.029 188.208 167.903C188.05 167.776 187.939 167.588 187.915 167.371C187.797 166.169 187.648 164.967 187.523 163.766C187.501 163.551 187.569 163.346 187.694 163.189C187.822 163.031 188.01 162.92 188.228 162.896L188.236 162.896ZM190.164 163.214L188.278 163.42C188.207 163.43 188.145 163.467 188.104 163.519C188.062 163.57 188.039 163.637 188.043 163.708C188.159 164.905 188.298 166.126 188.438 167.321C188.449 167.391 188.485 167.453 188.537 167.495C188.588 167.536 188.657 167.559 188.727 167.554L190.629 167.347C190.702 167.339 190.765 167.302 190.809 167.247C190.852 167.193 190.876 167.123 190.868 167.048L190.475 163.445C190.465 163.375 190.429 163.313 190.376 163.271C190.325 163.229 190.257 163.206 190.187 163.212L190.164 163.214Z" fill="white"/>
<path d="M175.823 122.535C175.823 122.535 167.335 128.036 151.479 123.594" stroke="#30295E" stroke-width="0.833372" stroke-miterlimit="2.6131" stroke-linecap="round" stroke-linejoin="round"/>
<path d="M193.658 191.833C187.964 191.024 164.122 187.637 159.841 187.171C154.974 186.641 143.551 190.552 140.939 191.429C138.326 192.304 137.867 193.851 137.867 193.851L145.332 193.656C145.332 193.656 153.935 197.287 159.181 200.189" stroke="#D58881" stroke-width="0.833372" stroke-miterlimit="2.6131" stroke-linecap="round" stroke-linejoin="round"/>
<path d="M126.522 178.181C126.522 178.181 123.074 165.463 116.694 160.87" stroke="#663B55" stroke-width="0.833372" stroke-miterlimit="2.6131" stroke-linecap="round" stroke-linejoin="round"/>
<path d="M104.361 190.219C104.361 190.219 108.927 171.211 109.483 168.262" stroke="#663B55" stroke-width="0.833372" stroke-miterlimit="2.6131" stroke-linecap="round" stroke-linejoin="round"/>
<path d="M125.796 193.867C125.796 193.867 118.448 197.311 115.582 204.666" stroke="#663B55" stroke-width="0.833372" stroke-miterlimit="2.6131" stroke-linecap="round" stroke-linejoin="round"/>
<path d="M125.661 191.824C125.661 191.824 120.078 191.679 116.311 194.244" stroke="#663B55" stroke-width="0.833372" stroke-miterlimit="2.6131" stroke-linecap="round" stroke-linejoin="round"/>
<path d="M200.539 191.147C200.539 191.147 209.873 191.409 211.987 196.561" stroke="#663B55" stroke-width="0.833372" stroke-miterlimit="2.6131" stroke-linecap="round" stroke-linejoin="round"/>
<path d="M202.546 189.52C202.546 189.52 207.291 189.25 209.585 190.016" stroke="#663B55" stroke-width="0.833372" stroke-miterlimit="2.6131" stroke-linecap="round" stroke-linejoin="round"/>
<path d="M202.949 173.515C202.949 173.515 202.863 162.382 209.705 156.898" stroke="#663B55" stroke-width="0.833372" stroke-miterlimit="2.6131" stroke-linecap="round" stroke-linejoin="round"/>
<path d="M221.66 168.534C221.66 168.534 225.318 182.545 223.704 186.786" stroke="#663B55" stroke-width="0.833372" stroke-miterlimit="2.6131" stroke-linecap="round" stroke-linejoin="round"/>
<path d="M203.266 181.687C203.266 181.687 205.032 177.879 207.566 176.691" stroke="#663B55" stroke-width="0.833372" stroke-miterlimit="2.6131" stroke-linecap="round" stroke-linejoin="round"/>
<path d="M176.931 123.95C176.931 123.95 172.123 129.602 160.905 129.995" stroke="#30295E" stroke-width="0.833372" stroke-miterlimit="2.6131" stroke-linecap="round" stroke-linejoin="round"/>
<path fill-rule="evenodd" clip-rule="evenodd" d="M137.658 86.3098C137.506 86.3474 137.356 86.3895 137.208 86.4368L137.204 86.4388L137.204 86.4382C134.48 87.3225 132.628 89.9953 132.892 92.9695C133.199 96.4259 136.25 98.9796 139.705 98.6723C143.162 98.3657 145.716 95.3152 145.409 91.8588C145.23 89.8499 144.126 88.1457 142.553 87.1317C142.911 88.959 142.864 91.2731 140.536 91.7555L140.215 88.1463C140.086 86.6856 138.654 86.1618 137.658 86.3098Z" fill="#D58881"/>
<path fill-rule="evenodd" clip-rule="evenodd" d="M182.746 81.4439C182.902 81.4485 183.057 81.4578 183.212 81.4722L183.216 81.4735C186.065 81.7565 188.445 83.972 188.823 86.9336C189.26 90.3756 186.823 93.5222 183.381 93.9591C179.939 94.3973 176.792 91.9614 176.355 88.5194C176.101 86.5184 176.816 84.6181 178.136 83.2923C178.177 85.1531 178.716 87.4041 181.095 87.3791L180.639 83.7844C180.455 82.3289 181.741 81.5117 182.746 81.4439Z" fill="#D58881"/>
<path fill-rule="evenodd" clip-rule="evenodd" d="M137.652 73.1071C137.604 74.1796 137.636 75.2686 137.754 76.3675L139.853 95.8219C141.123 107.585 151.787 116.171 163.551 114.901C175.312 113.631 183.899 102.968 182.63 91.2047L180.53 71.7509C180.397 70.5172 180.16 69.3183 179.829 68.1622C176.007 61.9474 169.262 61.9744 167.028 62.1691C164.07 62.4264 161.241 62.812 148.509 64.355C141.793 65.169 138.893 69.3433 137.652 73.1071Z" fill="#E9BAA8"/>
<path fill-rule="evenodd" clip-rule="evenodd" d="M156.152 98.648C156.454 101.708 159.181 103.943 162.239 103.64C165.299 103.338 167.534 100.613 167.232 97.5537L167.223 97.5551C167.17 97.028 166.698 96.6398 166.171 96.6924L157.024 97.5965C156.497 97.6478 156.109 98.121 156.161 98.6467L156.152 98.648Z" fill="#30295E"/>
<path fill-rule="evenodd" clip-rule="evenodd" d="M158.642 102.758C159.668 103.43 160.923 103.771 162.24 103.641C163.315 103.536 164.288 103.13 165.085 102.516C164.547 101.421 163.22 100.692 161.716 100.785C160.281 100.872 159.095 101.682 158.642 102.758Z" fill="#C35A5A"/>
<path fill-rule="evenodd" clip-rule="evenodd" d="M166.295 96.6891L157.698 97.5386C157.655 98.5033 158.19 99.4198 158.85 99.5666C159.653 99.7436 165.859 98.9665 166.25 98.4328C166.44 98.1762 166.394 97.411 166.295 96.6891Z" fill="white"/>
<path fill-rule="evenodd" clip-rule="evenodd" d="M174.715 91.7403C172.982 91.8943 171.702 93.4255 171.856 95.1573C172.01 96.8905 173.54 98.171 175.273 98.0176C177.005 97.8637 178.286 96.3332 178.132 94.6007C177.978 92.8675 176.447 91.587 174.715 91.7403Z" fill="#D58881"/>
<path fill-rule="evenodd" clip-rule="evenodd" d="M147.772 94.648C146.039 94.8027 144.759 96.3325 144.912 98.065C145.065 99.7989 146.597 101.079 148.329 100.925C150.062 100.772 151.343 99.2422 151.189 97.5084C151.035 95.7752 149.506 94.4947 147.772 94.648Z" fill="#D58881"/>
<path fill-rule="evenodd" clip-rule="evenodd" d="M146.75 83.4245C146.397 83.6522 145.923 83.5489 145.696 83.1949C145.469 82.8409 145.571 82.3671 145.924 82.1408C147.826 80.886 150.503 80.4747 152.605 81.4466C152.986 81.6223 153.155 82.0783 152.979 82.4592C152.803 82.8409 152.347 83.0093 151.966 82.833C150.264 82.048 148.286 82.4757 146.75 83.4245Z" fill="#30295E"/>
<path fill-rule="evenodd" clip-rule="evenodd" d="M174.058 80.4786C172.354 79.8785 170.33 79.8818 168.835 81.0136C168.499 81.2669 168.018 81.1992 167.764 80.8642C167.511 80.5293 167.579 80.0477 167.914 79.795C169.761 78.3967 172.464 78.227 174.588 79.0468C174.983 79.1936 175.184 79.6338 175.038 80.0279C174.89 80.4227 174.45 80.6241 174.058 80.4786Z" fill="#30295E"/>
<path fill-rule="evenodd" clip-rule="evenodd" d="M139.466 92.2286C139.466 92.2286 142.523 90.5816 141.932 85.1103C141.341 79.6397 141.487 80.9866 141.179 78.1322C140.871 75.2772 142.314 70.0678 148.101 69.4434C155.051 68.6932 161.998 67.9438 168.946 67.1936C174.734 66.5685 177.255 71.3502 177.564 74.2053C177.871 77.0597 177.726 75.7121 178.316 81.1834C178.907 86.654 182.246 87.6114 182.246 87.6114C181.777 83.2725 182.916 81.4249 182.916 81.4249L182.374 76.3971C180.869 61.9441 169.988 61.9119 167.029 62.1692C164.072 62.4264 161.242 62.812 148.51 64.355C135.777 65.8987 136.758 79.5233 136.758 79.5233L137.492 86.327C137.49 86.327 138.997 87.8897 139.466 92.2286Z" fill="#30295E"/>
<path fill-rule="evenodd" clip-rule="evenodd" d="M171.718 83.5101C172.673 83.4068 173.54 84.1036 173.641 85.059L173.885 87.3232C173.989 88.2779 173.293 89.1439 172.337 89.2465C171.383 89.3492 170.516 88.653 170.413 87.6976L170.169 85.4334C170.067 84.478 170.764 83.6127 171.718 83.5101Z" fill="#30295E"/>
<path fill-rule="evenodd" clip-rule="evenodd" d="M159.748 90.902C159.393 91.6285 158.92 92.6536 158.747 93.305C158.245 95.2205 161.893 95.9811 161.881 94.0275C161.875 93.33 161.59 92.3904 161.255 91.5863C160.357 89.4367 160.344 89.692 159.748 90.902Z" fill="#F1D3C8"/>
<path fill-rule="evenodd" clip-rule="evenodd" d="M147.626 90.3664C147.291 90.6125 146.838 90.4908 146.615 90.0953C146.392 89.6985 146.482 89.1768 146.815 88.9307C148.609 87.5725 151.159 87.162 153.183 88.274C153.55 88.4753 153.718 88.9826 153.556 89.4024C153.395 89.8222 152.962 90.0006 152.595 89.7999C150.957 88.9004 149.077 89.3419 147.626 90.3664Z" fill="#30295E"/>
<path fill-rule="evenodd" clip-rule="evenodd" d="M155.868 56.0715C181.799 52.8177 202.682 57.4789 202.508 66.4817C202.45 69.5289 199.987 72.6827 195.75 75.6489C201.705 72.1819 205.267 68.3544 205.337 64.6814C205.51 55.678 184.628 51.0161 158.696 54.2705C141.54 56.4235 126.472 61.5019 118.187 67.2996C126.831 62.2679 140.513 57.9981 155.868 56.0715Z" fill="#D58C75"/>
<path fill-rule="evenodd" clip-rule="evenodd" d="M33.5304 103.517L46.4291 103.399C51.5135 103.353 51.1852 95.8969 46.4041 95.9403L33.506 96.0587C28.4203 96.1048 28.7493 103.561 33.5304 103.517Z" fill="#D58881"/>
<path fill-rule="evenodd" clip-rule="evenodd" d="M62.1698 69.8651C62.2547 69.3525 62.3561 68.8596 62.4719 68.3852C62.5903 67.9042 62.7239 67.4436 62.8713 67.006C63.4253 65.3676 64.18 64.0207 65.0841 62.9337C66.0632 61.7559 67.2154 60.882 68.4741 60.2688C69.6414 59.7009 70.8995 59.3568 72.1932 59.2041C73.5822 59.041 75.0147 59.0969 76.4254 59.3292C76.9012 59.4075 77.3756 59.5075 77.8474 59.6253C78.3251 59.745 78.7962 59.8845 79.2607 60.0411C79.3134 60.0582 79.3535 60.0957 79.3772 60.1418C79.4002 60.1872 79.4048 60.2418 79.3877 60.2945L79.3825 60.3083C79.3186 60.4872 77.9382 64.3412 75.1469 67.4502C72.3248 70.5954 68.0662 72.9827 62.2771 70.0809C62.2356 70.0605 62.2041 70.0269 62.185 69.9881C62.1679 69.9519 62.1626 69.9085 62.1698 69.8651Z" fill="#789EAE"/>
<path fill-rule="evenodd" clip-rule="evenodd" d="M73.6197 84.6826C72.3432 84.6826 71.1265 84.9398 70.0185 85.405C69.0137 84.2601 67.5398 83.537 65.8974 83.537C65.0683 83.537 64.284 83.7212 63.5806 84.0502C62.0303 80.4997 58.489 78.0177 54.3673 78.0177C48.8164 78.0177 44.3183 82.5171 44.3183 88.0667C44.3183 88.2641 44.3242 88.4595 44.3354 88.6536C44.1209 88.6279 43.9038 88.6141 43.6833 88.6141C40.6559 88.6141 38.2009 91.0685 38.2009 94.0966C38.2009 94.4683 38.2384 94.8322 38.3094 95.1836C38.2114 95.1764 38.1134 95.1724 38.0147 95.1724C35.7709 95.1724 33.9515 96.9918 33.9515 99.2362C33.9515 100.217 34.2989 101.117 34.878 101.82C38.3766 102.289 41.814 102.149 43.6195 102.424C45.7409 102.747 63.2615 94.5223 79.3864 86.6829C77.8006 85.4301 75.797 84.6826 73.6197 84.6826Z" fill="#875371"/>
<path fill-rule="evenodd" clip-rule="evenodd" d="M54.337 61.0689C54.3745 60.4438 54.3864 59.8378 54.3772 59.2495C54.366 58.6521 54.3318 58.0757 54.2745 57.5223C54.0607 55.4489 53.5323 53.6651 52.7598 52.1458C51.9235 50.5014 50.8022 49.167 49.4856 48.1109C48.2657 47.1325 46.8799 46.3942 45.3988 45.8691C43.8103 45.3065 42.112 44.99 40.3933 44.888C39.8123 44.8532 39.228 44.8439 38.6431 44.8571C38.0495 44.8709 37.458 44.9078 36.8717 44.969C36.8053 44.9755 36.748 45.0084 36.7085 45.0565C36.6697 45.1045 36.6487 45.167 36.6552 45.2335L36.6579 45.2506C36.6849 45.4789 37.2797 50.3751 39.7307 54.7732C42.2101 59.2219 46.5772 63.162 54.1541 61.2953C54.2081 61.2814 54.2528 61.2518 54.2857 61.2104C54.3166 61.1709 54.3344 61.1215 54.337 61.0689Z" fill="#789EAE"/>
<path d="M58.1922 87.8903C58.1922 87.8903 58.1922 75.0014 58.1922 69.9453C58.1922 64.8886 55.8004 62.2112 53.4086 59.9306" stroke="#663B55" stroke-width="1.25009" stroke-miterlimit="2.6131" stroke-linecap="round" stroke-linejoin="round"/>
<path d="M58.1922 87.8903C58.1922 87.8903 58.1922 79.2863 58.1922 75.9114C58.1922 72.5359 60.5841 70.7481 62.9752 69.2268" stroke="#663B55" stroke-width="1.25009" stroke-miterlimit="2.6131" stroke-linecap="round" stroke-linejoin="round"/>
<path d="M38.7714 100.112C38.7714 95.6929 42.3529 92.1114 46.772 92.1114C47.8689 92.1114 48.9144 92.3325 49.8666 92.7319C50.7299 91.7475 51.9965 91.127 53.4086 91.127C54.1205 91.127 54.795 91.2849 55.4003 91.5679C56.7315 88.5161 59.776 86.3828 63.318 86.3828" stroke="#663B55" stroke-width="0.833372" stroke-miterlimit="2.6131" stroke-linecap="round" stroke-linejoin="round"/>
<path fill-rule="evenodd" clip-rule="evenodd" d="M72.049 94.9869L76.5241 98.9487L90.6092 102.291C94.4052 103.187 94.5441 99.5587 94.548 99.4448V99.4422V90.4526C94.548 86.927 90.9817 86.4875 90.8698 86.4743L90.8665 86.4737L75.2982 84.7852L72.049 94.9869Z" fill="#E9BAA8"/>
<path fill-rule="evenodd" clip-rule="evenodd" d="M76.5241 98.9487L90.6093 102.291C94.4053 103.187 94.5441 99.5587 94.548 99.4448V99.4422V98.0624C91.9055 97.3445 88.9017 96.5542 87.7785 96.3503C85.6025 95.9561 83.1949 96.7062 83.1949 96.7062L76.5241 98.9487Z" fill="#D58881"/>
<path fill-rule="evenodd" clip-rule="evenodd" d="M33.2632 107.417L46.162 107.299C51.247 107.252 50.918 99.7969 46.1363 99.8396L33.2382 99.9581C28.1532 100.005 28.4822 107.461 33.2632 107.417Z" fill="#E9BAA8"/>
<path fill-rule="evenodd" clip-rule="evenodd" d="M42.8095 107.48L55.6859 106.724C60.7623 106.426 60.0642 98.9947 55.2911 99.2757L42.4147 100.032C37.3382 100.33 38.0363 107.761 42.8095 107.48Z" fill="#E9BAA8"/>
<path fill-rule="evenodd" clip-rule="evenodd" d="M34.7812 107.412C34.7523 106.789 34.6839 105.575 34.5654 104.918C34.4035 104.011 33.4133 103.89 33.406 103.89L32.3855 103.894C31.2748 103.898 30.347 104.708 30.1575 105.765C30.8313 106.764 31.9749 107.422 33.2626 107.417L34.7812 107.412Z" fill="#D58881"/>
<path fill-rule="evenodd" clip-rule="evenodd" d="M57.0954 106.444L76.5241 98.9487C74.7449 96.6207 73.8322 94.4947 75.2029 92.5418C76.13 91.2212 71.4555 91.7976 65.6724 92.9234L54.1469 98.8572C50.5042 100.733 52.6999 108.14 57.0954 106.444Z" fill="#E9BAA8"/>
<path fill-rule="evenodd" clip-rule="evenodd" d="M74.5758 94.0775C74.5935 93.4432 74.7514 93.2129 75.1555 92.6122L69.598 92.2239C68.3958 92.4128 67.0667 92.6516 65.6724 92.924L54.1468 98.8579C53.8645 99.0033 53.6171 99.1816 53.4033 99.3869L45.325 99.862C45.2276 99.8534 45.1197 99.8495 45.0006 99.8515L37.5718 99.9192C37.5718 99.9192 37.9357 101.353 39.2365 102.076C39.5642 102.352 40.4091 102.66 41.8883 102.628L52.3156 102.404L52.411 102.401L52.6624 102.396L52.9085 102.391L53.1493 102.385L53.3842 102.38L53.6145 102.375L53.8376 102.37L54.0541 102.365L54.2633 102.36L54.4653 102.356L54.6601 102.351L54.8463 102.348L55.0246 102.344L55.1944 102.34L55.3543 102.337L55.5056 102.333L55.6464 102.33L55.778 102.327L55.8991 102.324L56.0096 102.322L56.1083 102.32L56.1958 102.318L56.2722 102.316C56.5788 102.309 57.5237 101.977 58.8588 101.443L58.8364 101.393C62.7851 99.7054 70.1862 96.1101 74.5758 94.0775Z" fill="#D58881"/>
<path fill-rule="evenodd" clip-rule="evenodd" d="M58.7528 99.8739L80.9176 91.8989C86.5191 89.8828 79.0186 80.3846 70.4988 84.528L55.7839 91.6844C51.8406 93.6011 54.0093 101.581 58.7528 99.8739Z" fill="#E9BAA8"/>
<path fill-rule="evenodd" clip-rule="evenodd" d="M47.4444 100.819L57.0289 100.094C59.2384 99.9258 60.9097 97.9814 60.7433 95.7719C60.5761 93.5623 58.6311 91.891 56.4215 92.0581L46.8371 92.7832C44.6282 92.9504 42.9569 94.8948 43.1233 97.1043C43.2905 99.3145 45.2349 100.986 47.4444 100.819Z" fill="#E9BAA8"/>
<path fill-rule="evenodd" clip-rule="evenodd" d="M47.0279 100.382L48.9131 100.24C49.5046 100.196 49.5606 99.5159 49.5606 99.5159C49.5606 99.5159 49.3329 97.3905 49.0861 96.4233C48.8407 95.4587 47.7642 95.4067 47.757 95.406L46.6575 95.4896C45.3119 95.5909 44.2939 96.776 44.3953 98.1216C44.4973 99.4672 45.6823 100.484 47.0279 100.382Z" fill="#D58881"/>
<path d="M76.6952 73.6282C99.5719 52.109 130.379 38.924 164.264 38.924C186.429 38.924 207.273 44.5644 225.445 54.4877M275.797 104.242C286.178 122.725 292.097 144.05 292.097 166.758C292.097 189.426 286.197 210.716 275.849 229.175M199.84 289.577C188.546 292.842 176.609 294.593 164.264 294.593C151.654 294.593 139.469 292.765 127.961 289.363M47.1404 218.061C40.2525 202.357 36.4302 185.004 36.4302 166.758C36.4302 147.99 40.4756 130.166 47.7399 114.111" stroke="#413B73" stroke-width="1.25009" stroke-miterlimit="2.6131" stroke-linecap="round" stroke-linejoin="round" stroke-dasharray="1.25 3.75"/>
</g>
<defs>
<clipPath id="clip0_8_253">
<rect width="329" height="329" fill="white"/>
</clipPath>
</defs>
</svg>
